<?xml version="1.0" encoding="utf-8"?>
<!-- Generator: Adobe Illustrator 26.5.0, SVG Export Plug-In . SVG Version: 6.00 Build 0)  -->
<svg version="1.1" id="Layer_1" xmlns="http://www.w3.org/2000/svg" xmlns:xlink="http://www.w3.org/1999/xlink" x="0px" y="0px"
	 viewBox="0 0 100 100" style="enable-background:new 0 0 100 100;" xml:space="preserve">
<style type="text/css">
	.st0{clip-path:url(#SVGID_00000109721471687545047050000009367444380461833095_);}
	.st1{fill:#4BA1E8;}
	.st2{fill:#FFFFFF;}
	.st3{fill:#FFDB2E;}
	.st4{fill:none;stroke:#F0F1F1;stroke-width:0.6455;stroke-miterlimit:10;}
</style>
<g>
	<g>
		<g>
			<g>
				<defs>
					<path id="SVGID_1_" d="M80.34,83H19.73C9.36,83,1.07,74.99,1.07,65.23V18.84c0-9.83,8.36-17.77,18.66-17.77h60.62
						C90.71,1.07,99,9.08,99,18.84v46.39C99,75.06,90.64,83,80.34,83z"/>
				</defs>
				<clipPath id="SVGID_00000013176013859417607390000003892992088824074887_">
					<use xlink:href="#SVGID_1_"  style="overflow:visible;"/>
				</clipPath>
				<g style="clip-path:url(#SVGID_00000013176013859417607390000003892992088824074887_);">
					<g>
						<rect x="-0.57" y="-3.11" class="st1" width="101.29" height="29.62"/>
					</g>
					<g>
						<g>
							<rect x="-0.57" y="26.58" class="st2" width="101.29" height="29.62"/>
						</g>
					</g>
					<polygon class="st3" points="54.18,42.54 58.68,41.39 54.18,40.11 57.97,36.68 53.54,37.96 56.11,32.71 52.32,36.28 
						53.25,30.08 50.75,35.33 49.96,29.14 49.04,35.33 46.53,30.02 47.46,36.21 43.75,32.64 46.25,37.89 41.74,36.61 45.53,40.05 
						41.1,41.26 45.53,42.47 41.74,45.9 46.25,44.69 43.67,49.88 47.46,46.38 46.46,52.57 48.96,47.25 49.82,53.51 50.75,47.25 
						53.18,52.64 52.25,46.38 56.04,49.94 53.47,44.76 57.97,46.04 					"/>
					<g>
						<rect x="-0.57" y="56.27" class="st1" width="101.29" height="29.62"/>
					</g>
				</g>
			</g>
		</g>
	</g>
	<path class="st4" d="M81.06,83H18.94C9.08,83,1,75.33,1,65.9V18.1C1,8.67,9.08,1,18.94,1h62.12C90.92,1,99,8.67,99,18.1v47.8
		C99,75.39,90.99,83,81.06,83z"/>
</g>
</svg>
