<?xml version="1.0" encoding="utf-8"?>
<!-- Generator: Adobe Illustrator 26.5.0, SVG Export Plug-In . SVG Version: 6.00 Build 0)  -->
<svg version="1.1" id="Layer_1" xmlns="http://www.w3.org/2000/svg" xmlns:xlink="http://www.w3.org/1999/xlink" x="0px" y="0px"
	 viewBox="0 0 100 100" style="enable-background:new 0 0 100 100;" xml:space="preserve">
<style type="text/css">
	.st0{fill:#FFFFFF;}
	.st1{clip-path:url(#SVGID_00000075150336914631957400000017016802704312481414_);}
	.st2{fill:#216CB7;}
	.st3{fill:#FFDB2E;}
	.st4{fill:none;stroke:#F0F1F1;stroke-width:0.6455;stroke-miterlimit:10;}
</style>
<g>
	<path class="st0" d="M41.81,27.7c0-0.13,0.09-0.23,0.21-0.23c0.12,0,0.24,0.1,0.24,0.23c0,0.13-0.12,0.22-0.24,0.22
		C41.9,27.92,41.81,27.82,41.81,27.7L41.81,27.7z"/>
</g>
<g>
	<path class="st0" d="M41.29,27.25c0-0.13,0.1-0.25,0.22-0.25c0.11,0,0.22,0.11,0.22,0.25c0,0.12-0.11,0.22-0.22,0.22
		C41.39,27.48,41.29,27.38,41.29,27.25L41.29,27.25z"/>
</g>
<g>
	<path class="st0" d="M40.7,26.87c0-0.12,0.08-0.22,0.21-0.22c0.11,0,0.2,0.1,0.2,0.22c0,0.13-0.1,0.23-0.2,0.23
		C40.78,27.11,40.7,27.01,40.7,26.87L40.7,26.87z"/>
</g>
<g>
	<path class="st0" d="M40.06,26.62c0-0.13,0.09-0.23,0.21-0.23c0.11,0,0.21,0.11,0.21,0.23c0,0.13-0.11,0.23-0.21,0.23
		C40.15,26.85,40.06,26.76,40.06,26.62L40.06,26.62z"/>
</g>
<g>
	<path class="st0" d="M39.34,26.48c0-0.13,0.1-0.23,0.23-0.23c0.11,0,0.2,0.1,0.2,0.23c0,0.12-0.08,0.23-0.2,0.23
		C39.44,26.71,39.34,26.6,39.34,26.48L39.34,26.48z"/>
</g>
<g>
	<path class="st0" d="M38.67,26.44c0-0.13,0.1-0.23,0.22-0.23c0.11,0,0.21,0.1,0.21,0.23c0,0.12-0.11,0.22-0.21,0.22
		C38.77,26.66,38.67,26.56,38.67,26.44L38.67,26.44z"/>
</g>
<g>
	<path class="st0" d="M38,26.47c0-0.13,0.1-0.23,0.22-0.23c0.13,0,0.22,0.11,0.22,0.23c0,0.12-0.09,0.23-0.22,0.23
		C38.11,26.7,38,26.58,38,26.47L38,26.47z"/>
</g>
<g>
	<path class="st0" d="M37.36,26.47c0-0.13,0.08-0.23,0.2-0.23c0.13,0,0.23,0.11,0.23,0.23c0,0.12-0.1,0.23-0.23,0.23
		C37.44,26.7,37.36,26.58,37.36,26.47L37.36,26.47z"/>
</g>
<g>
	<path class="st0" d="M37.68,27.11c0-0.13,0.1-0.24,0.21-0.24c0.12,0,0.23,0.11,0.23,0.24c0,0.12-0.11,0.24-0.23,0.24
		C37.78,27.34,37.68,27.23,37.68,27.11L37.68,27.11z"/>
</g>
<g>
	<path class="st0" d="M37.81,27.81c0-0.12,0.1-0.23,0.22-0.23c0.13,0,0.22,0.11,0.22,0.23c0,0.13-0.09,0.24-0.22,0.24
		C37.91,28.05,37.81,27.94,37.81,27.81L37.81,27.81z"/>
</g>
<g>
	<path class="st0" d="M36.85,26.02c0-0.13,0.1-0.24,0.21-0.24c0.12,0,0.23,0.11,0.23,0.24c0,0.12-0.11,0.22-0.23,0.22
		C36.94,26.24,36.85,26.14,36.85,26.02L36.85,26.02z"/>
</g>
<g>
	<g>
		<g>
			<g>
				<defs>
					<path id="SVGID_1_" d="M77.3,80.29H19.78c-9.84,0-17.7-7.61-17.7-16.88V19.36c0-9.33,7.94-16.88,17.7-16.88H77.3
						c9.84,0,17.7,7.61,17.7,16.88v44.05C95.01,72.69,87.07,80.29,77.3,80.29z"/>
				</defs>
				<clipPath id="SVGID_00000078044042795770976480000006020556382831469994_">
					<use xlink:href="#SVGID_1_"  style="overflow:visible;"/>
				</clipPath>
				<g style="clip-path:url(#SVGID_00000078044042795770976480000006020556382831469994_);">
					<g>
						<rect x="0.17" y="-0.77" class="st0" width="96.26" height="84.33"/>
					</g>
					<g>
						<g>
							<rect x="0.58" y="64.37" class="st2" width="96.26" height="9.08"/>
						</g>
						<g>
							<rect x="0.58" y="46.22" class="st2" width="96.26" height="9.08"/>
						</g>
						<g>
							<rect x="30.7" y="28" class="st2" width="66.21" height="9.08"/>
						</g>
						<g>
							<rect x="30.7" y="9.9" class="st2" width="66.21" height="9.08"/>
						</g>
						<polygon class="st3" points="21.07,26.4 26.36,24.99 21.07,23.58 25.61,19.43 20.25,20.96 23.37,14.7 18.83,18.92 19.98,11.5 
							16.93,17.77 15.98,10.35 14.89,17.77 11.98,11.44 13,18.92 8.52,14.57 11.57,20.84 6.28,19.3 10.76,23.52 5.4,24.86 
							10.76,26.33 6.21,30.43 11.5,28.95 8.45,35.22 12.93,31 11.84,38.35 14.83,32.09 15.84,39.5 16.93,32.09 19.85,38.48 
							18.83,31.06 23.31,35.28 20.25,29.02 25.54,30.62 						"/>
					</g>
				</g>
			</g>
		</g>
	</g>
	<path class="st4" d="M78.05,80.17H19.1c-9.36,0-17.03-7.29-17.03-16.24V18.53c0-8.95,7.67-16.24,17.03-16.24h58.95
		c9.36,0,17.03,7.29,17.03,16.24v45.39C95.01,72.94,87.41,80.17,78.05,80.17z"/>
</g>
</svg>
