<?xml version="1.0" encoding="utf-8"?>
<!-- Generator: Adobe Illustrator 26.5.0, SVG Export Plug-In . SVG Version: 6.00 Build 0)  -->
<svg version="1.1" id="Layer_1" xmlns="http://www.w3.org/2000/svg" xmlns:xlink="http://www.w3.org/1999/xlink" x="0px" y="0px"
	 viewBox="0 0 100 100" style="enable-background:new 0 0 100 100;" xml:space="preserve">
<style type="text/css">
	.st0{clip-path:url(#SVGID_00000181774315170047311630000003297487536062952373_);}
	.st1{fill:#216CB7;}
	.st2{fill:#FFFFFF;}
	.st3{fill:#E8425A;}
	.st4{fill:none;stroke:#F0F1F1;stroke-width:0.6419;stroke-miterlimit:10;}
</style>
<g>
	<g>
		<g>
			<g>
				<defs>
					<path id="SVGID_1_" d="M79.18,86.93H19.76c-10.15,0-18.26-8.29-18.26-18.4V20.4C1.5,10.21,9.75,2,19.76,2h59.42
						c10.15,0,18.26,8.29,18.26,18.4v48.12C97.57,78.64,89.33,86.93,79.18,86.93z"/>
				</defs>
				<clipPath id="SVGID_00000013191894097850617820000002926311441806192569_">
					<use xlink:href="#SVGID_1_"  style="overflow:visible;"/>
				</clipPath>
				<g style="clip-path:url(#SVGID_00000013191894097850617820000002926311441806192569_);">
					<g>
						<rect x="-0.12" y="-1.87" class="st1" width="99.95" height="92.52"/>
					</g>
					<g>
						<g>
							<g>
								<path class="st2" d="M7.21,52.57h-7.89v-6.88l0.21-0.14L58.39-1.8h7.96v7.02L7.21,52.57z M0.1,51.31h6.98L65.65,4.38v-4.92
									h-6.98L0.17,46.53v4.78H0.1z"/>
							</g>
							<g>
								<polygon class="st2" points="65.93,4.81 7.07,52.01 -0.33,52.01 -0.33,46.11 58.46,-1.17 65.93,-1.17 								"/>
							</g>
							<g>
								<polygon class="st3" points="65.93,2.91 48.87,16.61 43.94,16.61 65.93,-1.17 								"/>
							</g>
							<g>
								<polygon class="st3" points="21.73,34.1 16.87,34.1 -0.33,48.08 -0.33,52.01 								"/>
							</g>
						</g>
						<g>
							
								<rect x="24.02" y="-7.83" transform="matrix(1.557256e-03 -1 1 1.557256e-03 7.4541 58.065)" class="st2" width="17.56" height="66.26"/>
						</g>
						<g>
							<rect x="27.37" y="-1.17" class="st2" width="10.93" height="53.18"/>
						</g>
						<g>
							<path class="st2" d="M66.35,52.71h-7.89l-0.14-0.07L-0.75,5.16v-7.02h7.96L7.36-1.8l59,47.56V52.71z M58.6,51.38h6.98v-4.85
								L7.14-0.6H0.17v4.92L58.6,51.38z"/>
						</g>
						<g>
							<polygon class="st2" points="-0.33,4.74 58.53,52.08 65.93,52.08 65.93,46.18 7.21,-1.24 -0.33,-1.24 							"/>
						</g>
						<g>
							<polygon class="st3" points="-0.33,2.84 16.8,16.54 21.66,16.54 -0.33,-1.24 							"/>
						</g>
						<g>
							
								<rect x="27.4" y="-7.62" transform="matrix(1.557256e-03 -1 1 1.557256e-03 7.2847 58.3201)" class="st3" width="10.89" height="66.26"/>
						</g>
						<g>
							<rect x="29.42" y="-1.17" class="st3" width="6.77" height="53.6"/>
						</g>
						<g>
							<polygon class="st3" points="43.87,34.1 48.73,34.1 65.93,48.15 65.93,52.08 							"/>
						</g>
					</g>
					<g>
						<polygon class="st2" points="48.31,63.32 51.2,61.85 49.72,66.06 52.18,68.73 49.22,69.5 49.5,74.28 47.25,71.12 45.06,74.35 
							45.28,69.57 42.32,68.87 44.78,66.13 43.3,61.99 46.12,63.39 47.25,58.83 						"/>
					</g>
					<g>
						<polygon class="st2" points="78.83,71.89 80.17,71.19 79.46,73.16 80.66,74.42 79.25,74.77 79.39,77.02 78.33,75.47 
							77.35,77.02 77.42,74.84 76.01,74.49 77.21,73.16 76.5,71.26 77.84,71.89 78.33,69.85 						"/>
					</g>
					<g>
						<polygon class="st2" points="72.62,50.61 73.96,49.97 73.26,51.94 74.46,53.14 73.05,53.56 73.19,55.74 72.13,54.26 
							71.07,55.81 71.21,53.56 69.8,53.21 70.93,51.94 70.23,50.04 71.57,50.68 72.06,48.57 						"/>
					</g>
					<g>
						<polygon class="st2" points="80.02,27.43 81.36,26.79 80.66,28.69 81.86,29.95 80.45,30.38 80.59,32.55 79.53,31.08 
							78.47,32.62 78.61,30.38 77.21,30.02 78.33,28.76 77.7,26.86 78.97,27.43 79.46,25.39 						"/>
					</g>
					<g>
						<polygon class="st2" points="89.47,42.04 90.74,41.33 90.1,43.37 91.23,44.57 89.89,44.92 89.96,47.16 88.98,45.69 
							87.92,47.24 87.99,44.92 86.65,44.64 87.78,43.37 87.07,41.4 88.41,42.04 88.91,40 						"/>
					</g>
					<g>
						<polygon class="st2" points="86.16,56.86 84.82,56.51 84.25,54.68 83.62,56.58 82.35,56.93 83.34,58.33 83.13,60.51 
							84.25,59.46 85.45,60.44 85.24,58.33 						"/>
					</g>
				</g>
			</g>
		</g>
	</g>
	<path class="st4" d="M79.95,86.93h-60.9c-9.73,0-17.55-7.94-17.55-17.7v-49.6c0-9.76,7.89-17.7,17.55-17.7h60.9
		c9.73,0,17.55,7.94,17.55,17.7v49.6C97.57,78.99,89.68,86.93,79.95,86.93z"/>
</g>
</svg>
