<?xml version="1.0" encoding="utf-8"?>
<!-- Generator: Adobe Illustrator 26.5.0, SVG Export Plug-In . SVG Version: 6.00 Build 0)  -->
<svg version="1.1" id="Layer_1" xmlns="http://www.w3.org/2000/svg" xmlns:xlink="http://www.w3.org/1999/xlink" x="0px" y="0px"
	 viewBox="0 0 100 100" style="enable-background:new 0 0 100 100;" xml:space="preserve">
<style type="text/css">
	.st0{fill:#FFFFFF;}
	.st1{clip-path:url(#SVGID_00000114052503814790641220000014018614259565234311_);}
	.st2{fill:#6B9922;}
	.st3{fill:#FEC211;}
	.st4{fill:#216CB7;}
	.st5{fill:none;stroke:#F0F1F1;stroke-width:0.6455;stroke-miterlimit:10;}
</style>
<g>
	<path class="st0" d="M41.81,27.7c0-0.13,0.09-0.23,0.21-0.23c0.12,0,0.24,0.1,0.24,0.23c0,0.13-0.12,0.22-0.24,0.22
		C41.9,27.92,41.81,27.82,41.81,27.7L41.81,27.7z"/>
</g>
<g>
	<path class="st0" d="M41.29,27.25c0-0.13,0.1-0.25,0.22-0.25c0.11,0,0.22,0.11,0.22,0.25c0,0.12-0.11,0.22-0.22,0.22
		C41.39,27.48,41.29,27.38,41.29,27.25L41.29,27.25z"/>
</g>
<g>
	<path class="st0" d="M40.7,26.87c0-0.12,0.08-0.22,0.21-0.22c0.11,0,0.2,0.1,0.2,0.22c0,0.13-0.1,0.23-0.2,0.23
		C40.78,27.11,40.7,27.01,40.7,26.87L40.7,26.87z"/>
</g>
<g>
	<path class="st0" d="M40.06,26.62c0-0.13,0.09-0.23,0.21-0.23c0.11,0,0.21,0.11,0.21,0.23c0,0.13-0.11,0.23-0.21,0.23
		C40.15,26.85,40.06,26.76,40.06,26.62L40.06,26.62z"/>
</g>
<g>
	<path class="st0" d="M39.34,26.48c0-0.13,0.1-0.23,0.23-0.23c0.11,0,0.2,0.1,0.2,0.23c0,0.12-0.08,0.23-0.2,0.23
		C39.44,26.71,39.34,26.6,39.34,26.48L39.34,26.48z"/>
</g>
<g>
	<path class="st0" d="M38.67,26.44c0-0.13,0.1-0.23,0.22-0.23c0.11,0,0.21,0.1,0.21,0.23c0,0.12-0.11,0.22-0.21,0.22
		C38.77,26.66,38.67,26.56,38.67,26.44L38.67,26.44z"/>
</g>
<g>
	<path class="st0" d="M38,26.47c0-0.13,0.1-0.23,0.22-0.23c0.13,0,0.22,0.11,0.22,0.23c0,0.12-0.09,0.23-0.22,0.23
		C38.11,26.7,38,26.58,38,26.47L38,26.47z"/>
</g>
<g>
	<path class="st0" d="M37.36,26.47c0-0.13,0.08-0.23,0.2-0.23c0.13,0,0.23,0.11,0.23,0.23c0,0.12-0.1,0.23-0.23,0.23
		C37.44,26.7,37.36,26.58,37.36,26.47L37.36,26.47z"/>
</g>
<g>
	<path class="st0" d="M37.68,27.11c0-0.13,0.1-0.24,0.21-0.24c0.12,0,0.23,0.11,0.23,0.24c0,0.12-0.11,0.24-0.23,0.24
		C37.78,27.34,37.68,27.23,37.68,27.11L37.68,27.11z"/>
</g>
<g>
	<path class="st0" d="M37.81,27.81c0-0.12,0.1-0.23,0.22-0.23c0.13,0,0.22,0.11,0.22,0.23c0,0.13-0.09,0.24-0.22,0.24
		C37.91,28.05,37.81,27.94,37.81,27.81L37.81,27.81z"/>
</g>
<g>
	<path class="st0" d="M36.85,26.02c0-0.13,0.1-0.24,0.21-0.24c0.12,0,0.23,0.11,0.23,0.24c0,0.12-0.11,0.22-0.23,0.22
		C36.94,26.24,36.85,26.14,36.85,26.02L36.85,26.02z"/>
</g>
<g>
	<g>
		<g>
			<g>
				<defs>
					<path id="SVGID_1_" d="M77.89,85.39H19.13c-10.05,0-18.09-8.21-18.09-18.21V19.67C1.04,9.6,9.15,1.46,19.13,1.46h58.76
						c10.05,0,18.09,8.21,18.09,18.21v47.52C96.04,77.18,87.93,85.39,77.89,85.39z"/>
				</defs>
				<clipPath id="SVGID_00000121969653488982466680000002928570041876367789_">
					<use xlink:href="#SVGID_1_"  style="overflow:visible;"/>
				</clipPath>
				<g style="clip-path:url(#SVGID_00000121969653488982466680000002928570041876367789_);">
					<g>
						<g>
							<rect x="-0.55" y="-1.99" class="st2" width="98.19" height="90.76"/>
						</g>
					</g>
					<g>
						<polygon class="st3" points="48.51,13.53 22.1,43.32 48.51,73.05 74.91,43.32 						"/>
						<path class="st4" d="M59.8,43.32c-0.07,21.59-22.45,21.59-22.52,0C37.35,21.67,59.73,21.67,59.8,43.32z"/>
						<path class="st0" d="M38.25,36.7c-0.35,1.24-0.62,2.55-0.83,3.93c1.66-1.1,10.95-6.34,21.62,8.48
							c0.35-1.17,0.55-2.41,0.62-3.66C50.51,33.46,41.99,35.05,38.25,36.7z"/>
					</g>
				</g>
			</g>
		</g>
	</g>
	<path class="st5" d="M78.65,85.39H18.43c-9.56,0-17.39-7.86-17.39-17.52V18.91c0-9.66,7.83-17.52,17.39-17.52h60.22
		c9.56,0,17.39,7.86,17.39,17.52v48.97C96.04,77.53,88.28,85.39,78.65,85.39z"/>
</g>
</svg>
