<?xml version="1.0" encoding="utf-8"?>
<!-- Generator: Adobe Illustrator 26.5.0, SVG Export Plug-In . SVG Version: 6.00 Build 0)  -->
<svg version="1.1" id="Layer_1" xmlns="http://www.w3.org/2000/svg" xmlns:xlink="http://www.w3.org/1999/xlink" x="0px" y="0px"
	 viewBox="0 0 100 100" style="enable-background:new 0 0 100 100;" xml:space="preserve">
<style type="text/css">
	.st0{clip-path:url(#SVGID_00000143601868413266599780000012675243552843766963_);}
	.st1{fill:#FF4553;}
	.st2{fill:#FFFFFF;}
	.st3{fill:none;stroke:#F0F1F1;stroke-width:0.6455;stroke-miterlimit:10;}
</style>
<g>
	<g>
		<g>
			<g>
				<g>
					<defs>
						<path id="SVGID_1_" d="M80.33,80.94H19.52c-10.39,0-18.71-7.72-18.71-17.1v-44.6c0-9.44,8.38-17.1,18.71-17.1h60.81
							c10.39,0,18.71,7.72,18.71,17.1v44.6C99.04,73.22,90.66,80.94,80.33,80.94z"/>
					</defs>
					<clipPath id="SVGID_00000020394860859842681760000013087933497379213502_">
						<use xlink:href="#SVGID_1_"  style="overflow:visible;"/>
					</clipPath>
					<g style="clip-path:url(#SVGID_00000020394860859842681760000013087933497379213502_);">
						<g>
							<g>
								<rect x="-1.2" y="-1.15" class="st1" width="33.99" height="85.4"/>
							</g>
							<g>
								<rect x="32.93" y="-1.15" class="st2" width="33.99" height="85.4"/>
							</g>
							<path class="st1" d="M58.25,40.99c-0.22-0.14-0.3-0.33-0.22-0.66c0.3-1.18,0.57-2.41,0.87-3.56c0-0.05,0.08-0.14,0-0.14
								h-0.08c-0.87,0.25-1.71,0.47-2.58,0.71c-0.22,0.05-0.35,0-0.44-0.33c-0.14-0.47-0.3-0.96-0.44-1.42c0-0.05,0-0.14-0.08-0.14
								c0,0.05-0.08,0.05-0.08,0.14c-0.65,0.96-1.36,1.94-2.01,2.85c-0.14,0.19-0.3,0.25-0.44,0.14c-0.14-0.14-0.22-0.33-0.14-0.57
								c0.35-2.27,0.65-4.54,1.01-6.79c0-0.05,0-0.05,0-0.14c-0.08,0-0.08,0.05-0.14,0.05c-0.49,0.33-1.01,0.77-1.44,1.09
								c-0.22,0.19-0.35,0.14-0.57-0.19c-0.49-1.37-1.09-2.71-1.58-4.13c0-0.05,0-0.14-0.08-0.14c0,0.05-0.08,0.14-0.08,0.14
								c-0.49,1.37-1.09,2.71-1.58,4.13c-0.14,0.33-0.3,0.38-0.57,0.19c-0.49-0.33-1.01-0.77-1.5-1.09c-0.08,0-0.08-0.05-0.14-0.05
								c0,0.05,0,0.05,0,0.14c0.35,2.27,0.65,4.54,1.01,6.79c0,0.14,0,0.14,0,0.25c-0.08,0.14-0.14,0.25-0.22,0.33
								c-0.14,0.05-0.22-0.05-0.35-0.14c-0.65-0.96-1.36-1.89-2.01-2.85c0-0.05-0.08-0.05-0.14-0.14c0,0.05-0.08,0.14-0.08,0.14
								c-0.14,0.47-0.3,0.96-0.44,1.42c-0.14,0.33-0.22,0.33-0.44,0.33c-0.71-0.19-1.44-0.38-2.15-0.57
								c-0.14-0.05-0.3-0.14-0.44-0.14c0,0.05,0,0.14,0.08,0.14c0.3,1.18,0.57,2.41,0.87,3.56c0.08,0.33,0,0.52-0.22,0.57
								c-0.14,0.05-0.14,0.14-0.3,0.14c-0.22,0.14-0.49,0.33-0.71,0.47c0.08,0.05,0.08,0.14,0.14,0.14c1.5,1.61,3.07,3.23,4.6,4.93
								c0.14,0.19,0.22,0.33,0.14,0.57c-0.14,0.57-0.35,1.29-0.49,1.89c-0.08,0.14-0.08,0.14,0.08,0.14
								c0.65-0.14,1.22-0.33,1.88-0.47c0.79-0.19,1.58-0.33,2.37-0.57c0.35-0.14,0.65,0.19,0.57,0.66c0,0.33,0,0.71-0.08,1.04
								c-0.08,0.96-0.08,1.89-0.14,2.85c0,0.57-0.08,1.23-0.08,1.81c0.3,0,0.65,0,0.87,0c-0.08-0.96-0.08-1.94-0.14-2.9
								c-0.08-0.96-0.08-1.89-0.14-2.85c0-0.05,0-0.14,0-0.19c0.08-0.33,0.3-0.52,0.65-0.47c1.36,0.33,2.72,0.66,4.08,0.96
								c0.14,0,0.14,0,0.08-0.14c-0.14-0.66-0.35-1.29-0.57-1.94c-0.08-0.14-0.08-0.33,0.08-0.47c0.08-0.05,0.14-0.14,0.14-0.19
								c1.5-1.61,3.02-3.23,4.51-4.84c0.08-0.05,0.08-0.05,0.14-0.14C58.9,41.37,58.6,41.18,58.25,40.99z"/>
							<g>
								<rect x="67.06" y="-1.15" class="st1" width="33.99" height="85.4"/>
							</g>
						</g>
					</g>
				</g>
			</g>
		</g>
	</g>
	<path class="st3" d="M81.12,81.69h-62.3c-9.9,0-18-7.54-18-16.78V17.99c0-9.24,8.1-16.78,18-16.78h62.3c9.9,0,18,7.54,18,16.78
		v46.92C99.04,74.24,91.02,81.69,81.12,81.69z"/>
</g>
</svg>
