<?xml version="1.0" encoding="utf-8"?>
<!-- Generator: Adobe Illustrator 26.5.0, SVG Export Plug-In . SVG Version: 6.00 Build 0)  -->
<svg version="1.1" id="Layer_1" xmlns="http://www.w3.org/2000/svg" xmlns:xlink="http://www.w3.org/1999/xlink" x="0px" y="0px"
	 viewBox="0 0 100 100" style="enable-background:new 0 0 100 100;" xml:space="preserve">
<style type="text/css">
	.st0{fill:#FFFFFF;}
	.st1{clip-path:url(#SVGID_00000085236992133868256320000010496407920473788566_);}
	.st2{fill:#216CB7;}
	.st3{fill:#FF4553;}
	.st4{fill:none;stroke:#F0F1F1;stroke-width:0.6455;stroke-miterlimit:10;}
</style>
<g>
	<path class="st0" d="M41.81,27.7c0-0.13,0.09-0.23,0.21-0.23c0.12,0,0.24,0.1,0.24,0.23c0,0.13-0.12,0.22-0.24,0.22
		C41.9,27.92,41.81,27.82,41.81,27.7L41.81,27.7z"/>
</g>
<g>
	<path class="st0" d="M41.29,27.25c0-0.13,0.1-0.25,0.22-0.25c0.11,0,0.22,0.11,0.22,0.25c0,0.12-0.11,0.22-0.22,0.22
		C41.39,27.48,41.29,27.38,41.29,27.25L41.29,27.25z"/>
</g>
<g>
	<path class="st0" d="M40.7,26.87c0-0.12,0.08-0.22,0.21-0.22c0.11,0,0.2,0.1,0.2,0.22c0,0.13-0.1,0.23-0.2,0.23
		C40.78,27.11,40.7,27.01,40.7,26.87L40.7,26.87z"/>
</g>
<g>
	<path class="st0" d="M40.06,26.62c0-0.13,0.09-0.23,0.21-0.23c0.11,0,0.21,0.11,0.21,0.23c0,0.13-0.11,0.23-0.21,0.23
		C40.15,26.85,40.06,26.76,40.06,26.62L40.06,26.62z"/>
</g>
<g>
	<path class="st0" d="M39.34,26.48c0-0.13,0.1-0.23,0.23-0.23c0.11,0,0.2,0.1,0.2,0.23c0,0.12-0.08,0.23-0.2,0.23
		C39.44,26.71,39.34,26.6,39.34,26.48L39.34,26.48z"/>
</g>
<g>
	<path class="st0" d="M38.67,26.44c0-0.13,0.1-0.23,0.22-0.23c0.11,0,0.21,0.1,0.21,0.23c0,0.12-0.11,0.22-0.21,0.22
		C38.77,26.66,38.67,26.56,38.67,26.44L38.67,26.44z"/>
</g>
<g>
	<path class="st0" d="M38,26.47c0-0.13,0.1-0.23,0.22-0.23c0.13,0,0.22,0.11,0.22,0.23c0,0.12-0.09,0.23-0.22,0.23
		C38.11,26.7,38,26.58,38,26.47L38,26.47z"/>
</g>
<g>
	<path class="st0" d="M37.36,26.47c0-0.13,0.08-0.23,0.2-0.23c0.13,0,0.23,0.11,0.23,0.23c0,0.12-0.1,0.23-0.23,0.23
		C37.44,26.7,37.36,26.58,37.36,26.47L37.36,26.47z"/>
</g>
<g>
	<path class="st0" d="M37.68,27.11c0-0.13,0.1-0.24,0.21-0.24c0.12,0,0.23,0.11,0.23,0.24c0,0.12-0.11,0.24-0.23,0.24
		C37.78,27.34,37.68,27.23,37.68,27.11L37.68,27.11z"/>
</g>
<g>
	<path class="st0" d="M37.81,27.81c0-0.12,0.1-0.23,0.22-0.23c0.13,0,0.22,0.11,0.22,0.23c0,0.13-0.09,0.24-0.22,0.24
		C37.91,28.05,37.81,27.94,37.81,27.81L37.81,27.81z"/>
</g>
<g>
	<path class="st0" d="M36.85,26.02c0-0.13,0.1-0.24,0.21-0.24c0.12,0,0.23,0.11,0.23,0.24c0,0.12-0.11,0.22-0.23,0.22
		C36.94,26.24,36.85,26.14,36.85,26.02L36.85,26.02z"/>
</g>
<g>
	<g>
		<g>
			<g>
				<defs>
					<path id="SVGID_1_" d="M78.78,86.34H19.4c-10.15,0-18.28-8.3-18.28-18.42V19.84C1.13,9.65,9.32,1.41,19.4,1.41h59.38
						c10.15,0,18.28,8.3,18.28,18.42v48.08C97.13,78.11,88.94,86.34,78.78,86.34z"/>
				</defs>
				<clipPath id="SVGID_00000047779168781183387030000010015487526589459077_">
					<use xlink:href="#SVGID_1_"  style="overflow:visible;"/>
				</clipPath>
				<g style="clip-path:url(#SVGID_00000047779168781183387030000010015487526589459077_);">
					<g>
						<rect x="-2.37" y="-2.49" class="st2" width="99.43" height="91.77"/>
						<rect x="-2.37" y="58.71" class="st2" width="99.43" height="30.57"/>
						<rect x="-2.37" y="28.14" class="st3" width="99.43" height="30.57"/>
						<rect x="-2.37" y="19.84" class="st0" width="99.43" height="8.3"/>
						<rect x="-2.3" y="58.57" class="st0" width="99.43" height="8.3"/>
					</g>
				</g>
			</g>
		</g>
	</g>
	<path class="st4" d="M79.55,86.34H18.7c-9.66,0-17.58-7.96-17.58-17.73V19.07C1.13,9.3,9.04,1.34,18.7,1.34h60.85
		c9.66,0,17.58,7.96,17.58,17.73v49.55C97.13,78.39,89.22,86.34,79.55,86.34z"/>
</g>
</svg>
