<?xml version="1.0" encoding="utf-8"?>
<!-- Generator: Adobe Illustrator 26.5.0, SVG Export Plug-In . SVG Version: 6.00 Build 0)  -->
<svg version="1.1" id="Layer_1" xmlns="http://www.w3.org/2000/svg" xmlns:xlink="http://www.w3.org/1999/xlink" x="0px" y="0px"
	 viewBox="0 0 100 100" style="enable-background:new 0 0 100 100;" xml:space="preserve">
<style type="text/css">
	.st0{clip-path:url(#SVGID_00000178191788551023955400000006090614061073907616_);}
	.st1{fill:#FF4553;}
	.st2{fill:#FFFFFF;}
	.st3{fill:#216CB7;}
	.st4{clip-path:url(#SVGID_00000013161054867057872020000001089551651669018797_);}
	.st5{fill:#EF3A54;}
	.st6{fill:none;stroke:#F0F1F1;stroke-width:0.6455;stroke-miterlimit:10;}
</style>
<g>
	<g>
		<g>
			<g>
				<g>
					<defs>
						<path id="SVGID_1_" d="M80.15,85.24H19.53C9.16,85.24,0.88,77,0.88,66.99V19.32c0-10.11,8.36-18.25,18.65-18.25h60.62
							c10.37,0,18.65,8.24,18.65,18.25v47.64C98.88,77,90.44,85.24,80.15,85.24z"/>
					</defs>
					<clipPath id="SVGID_00000109740288504415956910000007501347818784793271_">
						<use xlink:href="#SVGID_1_"  style="overflow:visible;"/>
					</clipPath>
					<g style="clip-path:url(#SVGID_00000109740288504415956910000007501347818784793271_);">
						<g>
							<g>
								<g>
									<rect x="-0.78" y="-2.47" class="st1" width="101.31" height="30.42"/>
								</g>
								<g>
									<rect x="-0.78" y="28.05" class="st2" width="101.31" height="30.42"/>
								</g>
								<g>
									<rect x="-0.78" y="58.55" class="st3" width="101.31" height="30.42"/>
								</g>
							</g>
						</g>
						<g>
							<g>
								<path class="st2" d="M50.25,68.5L50.25,68.5c-9.44,0-17.08-10.92-17.08-24.42V27.41c0-4.41,2.5-7.96,5.58-7.96h23.09
									c3.08,0,5.58,3.52,5.58,7.96v16.66C67.36,57.58,59.69,68.5,50.25,68.5z"/>
							</g>
							<g>
								<g>
									<g>
										<g>
											<defs>
												<path id="SVGID_00000049201900354590400530000016107604538025824945_" d="M50.25,68.5L50.25,68.5
													c-9.44,0-17.08-10.92-17.08-24.42V19.45h34.25v24.63C67.36,57.58,59.69,68.5,50.25,68.5z"/>
											</defs>
											<clipPath id="SVGID_00000019678615321582545860000014242440203440930236_">
												<use xlink:href="#SVGID_00000049201900354590400530000016107604538025824945_"  style="overflow:visible;"/>
											</clipPath>
											<g style="clip-path:url(#SVGID_00000019678615321582545860000014242440203440930236_);">
												<g>
													<polygon class="st5" points="39.39,19.12 32.4,19.12 32.4,29.15 39.39,29.15 39.39,39.05 32.4,39.05 32.4,49 39.39,49 
														39.39,58.88 32.4,58.88 32.4,68.91 39.39,68.91 39.39,58.95 46.4,58.95 46.4,48.93 39.39,48.93 39.39,39.05 
														46.4,39.05 46.4,29.15 39.39,29.15 													"/>
												</g>
												<g>
													<polygon class="st5" points="53.41,19.12 46.4,19.12 46.4,29.15 53.41,29.15 53.41,39.05 46.4,39.05 46.4,49 53.41,49 
														53.41,58.88 46.4,58.88 46.4,68.91 53.41,68.91 53.41,58.95 60.42,58.95 60.42,48.93 53.41,48.93 53.41,39.05 
														60.42,39.05 60.42,29.15 53.41,29.15 													"/>
												</g>
												<g>
													<rect x="60.42" y="19.12" class="st5" width="7.01" height="10.03"/>
												</g>
												<g>
													<rect x="60.42" y="39.05" class="st5" width="7.01" height="10.03"/>
												</g>
												<g>
													<rect x="60.42" y="58.88" class="st5" width="7.01" height="10.03"/>
												</g>
											</g>
										</g>
									</g>
								</g>
							</g>
							<g>
								<path class="st2" d="M50.25,69.14c-9.64,0-17.53-11.2-17.53-24.96V18.99h35.03v25.19C67.78,57.91,59.92,69.14,50.25,69.14z
									 M33.53,20.09v23.99c0,13.14,7.51,23.86,16.73,23.86s16.73-10.72,16.73-23.86V20.09H33.53z"/>
							</g>
						</g>
					</g>
				</g>
			</g>
		</g>
	</g>
	<path class="st6" d="M80.93,85.24H18.8c-9.87,0-17.95-7.89-17.95-17.56V18.56C0.85,8.89,8.94,1,18.8,1h62.12
		c9.87,0,17.95,7.89,17.95,17.56v49.1C98.88,77.35,90.79,85.24,80.93,85.24z"/>
</g>
</svg>
