<?xml version="1.0" encoding="utf-8"?>
<!-- Generator: Adobe Illustrator 26.5.0, SVG Export Plug-In . SVG Version: 6.00 Build 0)  -->
<svg version="1.1" id="Layer_1" xmlns="http://www.w3.org/2000/svg" xmlns:xlink="http://www.w3.org/1999/xlink" x="0px" y="0px"
	 viewBox="0 0 100 100" style="enable-background:new 0 0 100 100;" xml:space="preserve">
<style type="text/css">
	.st0{clip-path:url(#SVGID_00000029027798352381384680000017229680784843345554_);}
	.st1{fill:#FF4553;}
	.st2{fill:#FFFFFF;}
	.st3{fill:none;stroke:#F0F1F1;stroke-width:0.6419;stroke-miterlimit:10;}
</style>
<g>
	<g>
		<g>
			<g>
				<defs>
					<path id="SVGID_1_" d="M79.59,85.98H19.56c-10.26,0-18.45-8.11-18.45-18.01V20.88c0-9.97,8.33-18.01,18.45-18.01h60.04
						c10.26,0,18.45,8.11,18.45,18.01v47.09C98.11,77.94,89.78,85.98,79.59,85.98z"/>
				</defs>
				<clipPath id="SVGID_00000038398966594710890780000014603759864514099841_">
					<use xlink:href="#SVGID_1_"  style="overflow:visible;"/>
				</clipPath>
				<g style="clip-path:url(#SVGID_00000038398966594710890780000014603759864514099841_);">
					<g>
						<rect x="-0.95" y="-0.91" class="st1" width="100.99" height="90.53"/>
					</g>
					<polygon class="st2" points="100.03,34.15 29.6,34.15 29.6,-0.91 17.49,-0.91 17.49,34.15 -0.95,34.15 -0.95,51.4 17.49,51.4 
						17.49,89.69 29.6,89.69 29.6,51.4 100.03,51.4 					"/>
				</g>
			</g>
		</g>
	</g>
	<path class="st3" d="M80.38,85.15H18.84c-9.83,0-17.73-7.77-17.73-17.32V19.3c0-9.55,7.98-17.32,17.73-17.32h61.53
		c9.83,0,17.73,7.77,17.73,17.32v48.53C98.11,77.39,90.13,85.15,80.38,85.15z"/>
</g>
</svg>
