<?xml version="1.0" encoding="utf-8"?>
<!-- Generator: Adobe Illustrator 26.5.0, SVG Export Plug-In . SVG Version: 6.00 Build 0)  -->
<svg version="1.1" id="Layer_1" xmlns="http://www.w3.org/2000/svg" xmlns:xlink="http://www.w3.org/1999/xlink" x="0px" y="0px"
	 viewBox="0 0 100 100" style="enable-background:new 0 0 100 100;" xml:space="preserve">
<style type="text/css">
	.st0{clip-path:url(#SVGID_00000052100530187163606020000002662065228322355116_);}
	.st1{fill:#FEC211;}
	.st2{fill:#216CB7;}
	.st3{fill:#FF4553;}
	.st4{fill:#1D4B70;}
	.st5{fill:none;stroke:#F0F1F1;stroke-width:0.6455;stroke-miterlimit:10;}
</style>
<g>
	<g>
		<g>
			<g>
				<defs>
					<path id="SVGID_1_" d="M79.53,83h-60C9.28,83,1.07,75.07,1.07,65.4V19.47c0-9.73,8.28-17.6,18.47-17.6h60
						C89.79,1.88,98,9.81,98,19.47V65.4C98,75.13,89.72,83,79.53,83z"/>
				</defs>
				<clipPath id="SVGID_00000177451080448510012110000010478432142932514208_">
					<use xlink:href="#SVGID_1_"  style="overflow:visible;"/>
				</clipPath>
				<g style="clip-path:url(#SVGID_00000177451080448510012110000010478432142932514208_);">
					<g>
						<g>
							<g>
								<rect x="-0.63" y="-1.59" class="st1" width="100.25" height="29.33"/>
							</g>
						</g>
						<g>
							<rect x="-0.63" y="27.81" class="st2" width="100.25" height="29.33"/>
						</g>
						<g>
							<rect x="-0.63" y="57.2" class="st3" width="100.25" height="29.33"/>
						</g>
						<g>
							<path class="st4" d="M43.52,55.34c-0.5,0.33-0.85,0.6-1.2,0.8c-0.92,0.6-1.84,0.8-2.9,0.4c-0.35-0.13-0.64,0-0.99,0.33
								C37.58,57.94,36.8,59,35.95,60c-0.14,0.2-0.35,0.6-0.64,0.27c-0.14-0.33-0.07-0.6,0.14-0.93c0.71-1.07,1.7-1.73,2.41-2.8
								c0.28-0.33,0.42-0.6,0-0.93c-0.14-0.13-0.28-0.33-0.35-0.53c-0.64-1-0.64-1-1.34,0c-0.14,0.13-0.21,0.33-0.35,0.47
								c-0.14,0.13-0.28,0.2-0.35,0c-0.14-0.2-0.14-0.4-0.07-0.67c0-0.07,0.07-0.13,0.14-0.13c1.27-0.67,1.13-1.93,0.78-3.4
								c-0.35-1.33-0.35-2.8-0.35-4.27c-0.07-2.07,0-4.2,0-6.27c0-0.53,0.07-1.07-0.35-1.47c-0.14-0.13-0.14-0.4-0.07-0.6
								c0.14-1.13,0.21-2.33,0.21-3.47c0-0.67,0.14-1.27-0.35-1.87c-0.35-0.53,0-1.33-0.07-2.27c0.28,0.4,0.85,0.33,0.35,1.07
								c-0.14,0.13-0.07,0.33,0.07,0.33c0.14,0.13,0.28-0.07,0.35-0.2c0.14-0.33,0.28-0.93,0.64-0.47c0.28,0.33,0.64,0.87,0.14,1.4
								c-0.21,0.2-0.14,0.33,0,0.47c0.28,0.33,0.57,0.6,0.92,1c0.07-1.13,0.14-2.13,0.14-3.13c0-0.6-0.35-0.8-0.78-0.73
								c-0.57,0.13-0.57,0-0.64-0.8c0-0.2-0.14-0.2-0.21-0.27c-0.42-0.27-0.64-0.8-0.85-1.33c-0.07-0.2-0.14-0.4-0.07-0.6
								c0.14-0.27,0.35-0.13,0.5-0.13s0.35,0.13,0.5,0.27c0.35,0.2,0.5,0.87,1.06,0.6c0.14-0.07,0.35,0.47,0.35,0.8
								c0.07,0.27,0,0.6,0.14,0.8c0.14,0.07,0.21-0.07,0.21-0.2c0.14-0.4,0.21-0.93,0.64-0.53c0.28,0.33,0.57,0.8,0.14,1.27
								c-0.28,0.33-0.14,0.47,0.07,0.67c0.5,0.6,0.99,1.13,1.56,1.73c0.42,0.47,1.06,0.33,1.49-0.6c0.35-0.73,0.99-0.87,1.27-1.67
								c0.07-0.2,0.28-0.4,0.28-0.67c0.14-0.6,0.35-1,0.85-0.87c0.21,0.07,0.35-0.13,0.35-0.33c0.07-0.2-0.14-0.33-0.28-0.33
								c-0.64,0.13-0.92-0.53-1.42-0.73c-0.14-0.07-0.35-0.33-0.5-0.13c-0.78,0.93-1.2-0.13-1.84-0.53c-0.85-0.6-1.77-0.53-2.62-0.2
								c-0.35,0.13-0.64,0.2-0.99,0c-0.42-0.33-0.85-0.8-1.34-0.27c-0.14,0.13-0.21,0.07-0.28-0.13c-0.14-0.27,0.14-0.4,0.14-0.53
								c1.13-1.4,2.33-2.6,3.75-3.27c1.63-0.67,3.33-0.93,5.02-0.53c0.99,0.27,1.42,1,1.27,2.33c-0.14,0.73,0.14,0.93,0.57,0.87
								c0.64-0.2,1.2-0.27,1.84,0c0.35,0.13,0.42-0.13,0.35-0.6c-0.28-1.8,0.07-2.4,1.34-2.6c3.18-0.6,6.01,0.53,8.42,3.6
								c0.14,0.2,0.5,0.33,0.35,0.73c-0.14,0.33-0.42,0.13-0.64-0.07c-0.35-0.27-0.5,0-0.71,0.2c-0.35,0.33-0.78,0.4-1.27,0.2
								c-1.27-0.53-2.41-0.2-3.47,0.93c-0.14,0.13-0.35,0.33-0.5,0.13c-0.42-0.6-0.85-0.33-1.34,0c-0.21,0.13-0.5,0.33-0.85,0.33
								c-0.35-0.07-0.42,0.33-0.57,0.67c-0.21,0.87-0.64,1.47-1.34,1.73c0.64,0.6,1.13,1.07,1.63,1.67c0.64,0.73,1.2,1.33,1.63,2.33
								c0.14,0.47,0.35,0.27,0.57,0.13c0.28-0.13-0.14-0.33,0-0.53c0.14-0.13,0.28,0.33,0.42,0.13c0.14-0.33-0.28-0.53-0.14-0.87
								c0.21-0.13,0.21,0.33,0.42,0.33c0-0.47-0.35-0.73-0.28-1.2c0.14-0.13,0.21,0.27,0.42,0.07c-0.35-0.67-0.42-1.47-0.35-2.47
								c0.35,0.6,0.57,1.13,0.85,1.6l0.07-0.07c-0.28-0.87-0.57-1.8-0.85-2.73c0.07,0,0.07-0.07,0.14-0.07
								c0.42,1.07,0.85,2.13,1.34,3.2c0,0,0.07,0,0.07-0.07c-0.14-0.53-0.21-1.07-0.35-1.6c0.14,0.53,0.71,0.33,0.85,1
								c0.07,0.13,0.42-0.13,0.64-0.33c0.14-0.13,0.28-0.33,0.07-0.53c-0.57-0.6-0.21-1.07,0.14-1.4c0.42-0.53,0.5,0.27,0.71,0.6
								c0,0.07,0.07,0.07,0.14,0.13c0.21-0.07,0.14-0.33,0.14-0.47c0.14-0.47,0.07-1.27,0.71-0.87c0.14,0.13,0.21-0.2,0.28-0.33
								c0.28-0.4,0.64-0.67,1.06-0.8c0.35-0.13,0.5,0.07,0.35,0.53c-0.14,0.47-0.28,0.87-0.57,1.33c-0.14,0.2-0.57,0.2-0.35,0.87
								c0.07,0.2-0.42,0.4-0.71,0.33c-0.85,0-0.99,0.27-0.92,1.33c0.07,0.6,0.07,1.2,0.14,1.8c0,0.47,0.14,0.53,0.42,0.27
								c0.14-0.13,0.35-0.33,0.5-0.53s0.28-0.33,0.07-0.6c-0.5-0.53-0.14-1,0.14-1.4c0.14-0.2,0.5-0.13,0.42,0.07
								c-0.14,0.87,1.27,0.4,0.71,1.53c-0.21,0.47-0.35,0.93-0.28,1.47c0.14,1.27,0.07,2.53,0.28,3.73
								c0.07,0.13,0.07,0.47-0.07,0.53c-0.57,0.53-0.35,1.33-0.35,2c-0.07,2.73,0.14,5.47-0.14,8.2c-0.14,1-0.14,2-0.42,2.93
								c-0.21,0.87-0.07,1.27,0.35,1.73c0.42,0.4,0.99,0.73,0.71,1.73c0,0.07-0.07,0.13-0.14,0.2c-0.35-0.67-0.71-1.27-1.2-1.6
								c-0.85-0.6-0.85,0.87-1.34,1.27c-0.35,0.2-0.14,0.53,0.07,0.8c0.64,1,1.56,1.6,2.26,2.53c0.35,0.4,0.42,0.87,0.21,1.47
								c-0.64-0.4-1.06-1.2-1.63-1.73c-0.21-0.2-0.35-0.47-0.5-0.73c-0.71-1.13-1.42-1.8-2.62-1.33c-0.92,0.33-1.84-0.33-2.76-1
								c-0.21-0.13-0.35-0.47-0.71-0.4c0.14,0.67,0.35,1.33,0.5,1.93c0.14,0.47,0.14,0.87-0.35,0.87c-0.42,0-0.57,0.4-0.57,0.93
								c0,0.13,0.07,0.33,0.14,0.47c0.07,0.4,0.21,0.87,0,1.27c-0.28,0.33-0.42-0.27-0.71-0.13c0,1.53-0.35,1.93-1.49,1.67
								c-0.57-0.13-1.06-0.27-1.63,0c-0.07,0.07-0.14,0.07-0.28,0.07c-1.13,0.07-1.34-0.33-1.2-1.87c-0.14,0.13-0.28,0.27-0.42,0.33
								c-0.35,0.27-0.57,0-0.57-0.53c0-0.33,0.14-0.73,0.14-1.07c0-0.53,0.07-1.07-0.57-0.93c-0.42,0.13-0.42-0.33-0.35-0.73
								C43.17,56.74,43.31,56.2,43.52,55.34z M43.45,32.94c-0.57,0.47-0.92,1.07-1.42,1.33c-0.14,0.13-0.35,0.13-0.28,0.53
								c0.07,0.27,0.21,0.33,0.42,0.33c0.14,0,0.28-0.2,0.42-0.13c0.14,0.27-0.21,0.4-0.07,0.8C42.81,34.87,43.59,34.27,43.45,32.94
								z"/>
							<path class="st4" d="M41.19,29.87c0.57,0.87,0.42-0.33,0.78-0.33c0.14,0.2,0,0.53,0.07,0.8c0,0.2-0.35,0.87,0.28,0.6
								c0.14-0.07,0.14,0.2,0.07,0.33c-0.21,0.8-0.5,1.47-1.06,2C41.05,32.07,40.97,31.01,41.19,29.87z"/>
						</g>
					</g>
				</g>
			</g>
		</g>
	</g>
	<path class="st5" d="M80.24,83.19H18.76C8.99,83.19,1,75.5,1,66.05V18.14C1,8.69,8.99,1,18.76,1h61.48C90.01,1,98,8.69,98,18.14
		v47.91C98,75.57,90.01,83.19,80.24,83.19z"/>
</g>
</svg>
