<?xml version="1.0" encoding="utf-8"?>
<!-- Generator: Adobe Illustrator 26.5.0, SVG Export Plug-In . SVG Version: 6.00 Build 0)  -->
<svg version="1.1" id="Layer_1" xmlns="http://www.w3.org/2000/svg" xmlns:xlink="http://www.w3.org/1999/xlink" x="0px" y="0px"
	 viewBox="0 0 100 100" style="enable-background:new 0 0 100 100;" xml:space="preserve">
<style type="text/css">
	.st0{clip-path:url(#SVGID_00000001632338168356471320000007822489210954568849_);}
	.st1{fill:#216CB7;}
	.st2{fill:#FFFFFF;}
	.st3{fill:#FF4553;}
	.st4{fill:none;stroke:#F0F1F1;stroke-width:0.6419;stroke-miterlimit:10;}
</style>
<g>
	<g>
		<g>
			<g>
				<defs>
					<path id="SVGID_1_" d="M79.52,85.7H19.49c-10.26,0-18.45-8.19-18.45-18.19V19.96c0-10.07,8.33-18.19,18.45-18.19h60.04
						c10.26,0,18.45,8.19,18.45,18.19v47.55C98.04,77.51,89.78,85.7,79.52,85.7z"/>
				</defs>
				<clipPath id="SVGID_00000142890206426163934070000015145921318470467726_">
					<use xlink:href="#SVGID_1_"  style="overflow:visible;"/>
				</clipPath>
				<g style="clip-path:url(#SVGID_00000142890206426163934070000015145921318470467726_);">
					<g>
						<g>
							<rect x="-0.88" y="-2.39" class="st1" width="33.54" height="91.57"/>
						</g>
						<g>
							<g>
								<rect x="32.73" y="-2.39" class="st2" width="33.54" height="91.57"/>
							</g>
						</g>
						<g>
							<rect x="66.42" y="-2.39" class="st3" width="33.54" height="91.57"/>
						</g>
					</g>
				</g>
			</g>
		</g>
	</g>
	<path class="st4" d="M80.24,85.7H18.7c-9.83,0-17.73-7.84-17.73-17.49V19.2C0.97,9.55,8.95,1.7,18.7,1.7h61.53
		c9.83,0,17.73,7.84,17.73,17.49v49.01C98.04,77.86,90.13,85.7,80.24,85.7z"/>
</g>
</svg>
