<?xml version="1.0" encoding="utf-8"?>
<!-- Generator: Adobe Illustrator 26.5.0, SVG Export Plug-In . SVG Version: 6.00 Build 0)  -->
<svg version="1.1" id="Layer_1" xmlns="http://www.w3.org/2000/svg" xmlns:xlink="http://www.w3.org/1999/xlink" x="0px" y="0px"
	 viewBox="0 0 100 100" style="enable-background:new 0 0 100 100;" xml:space="preserve">
<style type="text/css">
	.st0{fill:#FFFFFF;}
	.st1{clip-path:url(#SVGID_00000121246298366264517850000003600847092975146129_);}
	.st2{fill:#FF4553;}
	.st3{fill:#216CB7;}
	.st4{fill:#252538;}
	.st5{fill:none;stroke:#F0F1F1;stroke-width:0.6455;stroke-miterlimit:10;}
</style>
<g>
	<path class="st0" d="M41.81,27.7c0-0.13,0.09-0.23,0.21-0.23c0.12,0,0.24,0.1,0.24,0.23c0,0.13-0.12,0.22-0.24,0.22
		C41.9,27.92,41.81,27.82,41.81,27.7L41.81,27.7z"/>
</g>
<g>
	<path class="st0" d="M41.29,27.25c0-0.13,0.1-0.25,0.22-0.25c0.11,0,0.22,0.11,0.22,0.25c0,0.12-0.11,0.22-0.22,0.22
		C41.39,27.48,41.29,27.38,41.29,27.25L41.29,27.25z"/>
</g>
<g>
	<path class="st0" d="M40.7,26.87c0-0.12,0.08-0.22,0.21-0.22c0.11,0,0.2,0.1,0.2,0.22c0,0.13-0.1,0.23-0.2,0.23
		C40.78,27.11,40.7,27.01,40.7,26.87L40.7,26.87z"/>
</g>
<g>
	<path class="st0" d="M40.06,26.62c0-0.13,0.09-0.23,0.21-0.23c0.11,0,0.21,0.11,0.21,0.23c0,0.13-0.11,0.23-0.21,0.23
		C40.15,26.85,40.06,26.76,40.06,26.62L40.06,26.62z"/>
</g>
<g>
	<path class="st0" d="M39.34,26.48c0-0.13,0.1-0.23,0.23-0.23c0.11,0,0.2,0.1,0.2,0.23c0,0.12-0.08,0.23-0.2,0.23
		C39.44,26.71,39.34,26.6,39.34,26.48L39.34,26.48z"/>
</g>
<g>
	<path class="st0" d="M38.67,26.44c0-0.13,0.1-0.23,0.22-0.23c0.11,0,0.21,0.1,0.21,0.23c0,0.12-0.11,0.22-0.21,0.22
		C38.77,26.66,38.67,26.56,38.67,26.44L38.67,26.44z"/>
</g>
<g>
	<path class="st0" d="M38,26.47c0-0.13,0.1-0.23,0.22-0.23c0.13,0,0.22,0.11,0.22,0.23c0,0.12-0.09,0.23-0.22,0.23
		C38.11,26.7,38,26.58,38,26.47L38,26.47z"/>
</g>
<g>
	<path class="st0" d="M37.36,26.47c0-0.13,0.08-0.23,0.2-0.23c0.13,0,0.23,0.11,0.23,0.23c0,0.12-0.1,0.23-0.23,0.23
		C37.44,26.7,37.36,26.58,37.36,26.47L37.36,26.47z"/>
</g>
<g>
	<path class="st0" d="M37.68,27.11c0-0.13,0.1-0.24,0.21-0.24c0.12,0,0.23,0.11,0.23,0.24c0,0.12-0.11,0.24-0.23,0.24
		C37.78,27.34,37.68,27.23,37.68,27.11L37.68,27.11z"/>
</g>
<g>
	<path class="st0" d="M37.81,27.81c0-0.12,0.1-0.23,0.22-0.23c0.13,0,0.22,0.11,0.22,0.23c0,0.13-0.09,0.24-0.22,0.24
		C37.91,28.05,37.81,27.94,37.81,27.81L37.81,27.81z"/>
</g>
<g>
	<path class="st0" d="M36.85,26.02c0-0.13,0.1-0.24,0.21-0.24c0.12,0,0.23,0.11,0.23,0.24c0,0.12-0.11,0.22-0.23,0.22
		C36.94,26.24,36.85,26.14,36.85,26.02L36.85,26.02z"/>
</g>
<g>
	<g>
		<g>
			<g>
				<defs>
					<path id="SVGID_1_" d="M77.34,80.86H19.81c-9.84,0-17.7-7.72-17.7-17.12V19.05c0-9.47,7.94-17.12,17.7-17.12h57.52
						c9.84,0,17.7,7.72,17.7,17.12v44.69C95.04,73.2,87.1,80.86,77.34,80.86z"/>
				</defs>
				<clipPath id="SVGID_00000149355616040689815710000001782832958755133338_">
					<use xlink:href="#SVGID_1_"  style="overflow:visible;"/>
				</clipPath>
				<g style="clip-path:url(#SVGID_00000149355616040689815710000001782832958755133338_);">
					<g>
						<rect x="0.41" y="-1.39" class="st0" width="96.26" height="85.55"/>
					</g>
					<g>
						<path class="st2" d="M37.52,34.16c0.54-1.75,1.29-3.18,2.24-4.61c1.97-2.79,4.27-4.48,6.99-5.06
							c6.17-1.3,11.94,4.09,13.57,12.45c0.81,4.02,0.61,7.98-0.61,11.74c-0.07,0.13-0.07,0.32-0.2,0.45c-0.07-0.13,0-0.32,0.07-0.45
							c0.27-1.3,0.27-2.66,0.14-4.02c-0.61-4.61-3.87-7.78-7.33-6.75c-1.63,0.52-2.85,1.75-3.8,3.7c-1.36,2.72-3.19,4.02-5.56,3.83
							c-1.9-0.19-3.46-1.43-4.54-3.63c-1.09-2.21-1.36-4.61-0.95-7.26C37.52,34.48,37.65,34.29,37.52,34.16z"/>
						<path class="st3" d="M37.52,34.16c0.14,0.13,0,0.32,0,0.52c-0.41,2.59-0.14,5.06,0.95,7.26c1.09,2.21,2.65,3.44,4.54,3.63
							c2.37,0.19,4.21-1.04,5.56-3.83c0.95-1.88,2.17-3.18,3.8-3.7c3.46-1.1,6.72,2.08,7.33,6.75c0.2,1.36,0.14,2.72-0.14,4.02
							c-0.07,0.13-0.14,0.32-0.07,0.45l0,0c-0.14,0-0.14,0.13-0.14,0.19c-0.07,0.26-0.14,0.52-0.2,0.78
							c-1.7,4.15-4.14,6.88-7.39,8.17c-6.72,2.59-13.57-3.18-15.19-12.78C36.02,41.55,36.36,37.79,37.52,34.16z"/>
						<path class="st4" d="M30.6,14.12c-2.98,4.15-5.9,8.37-8.82,12.45c-0.75-1.04-1.49-2.01-2.24-3.11c0-0.06,0.14-0.13,0.14-0.26
							c2.78-3.89,5.56-7.91,8.41-11.8c0.07-0.06,0.14-0.13,0.14-0.13c0.14-0.13,0.14-0.13,0.27,0c0.41,0.58,0.81,1.1,1.22,1.69
							C29.99,13.27,30.33,13.66,30.6,14.12z"/>
						<path class="st4" d="M19.54,60.1c0.68-0.97,1.36-1.95,2.03-2.92c0.14-0.13,0.14-0.13,0.27,0c0.07,0.06,0.07,0.13,0.14,0.13
							c2.78,3.96,5.63,7.98,8.41,11.93c0.07,0.13,0.14,0.19,0.14,0.26c-0.75,1.04-1.49,2.08-2.24,3.11
							C25.44,68.4,22.53,64.25,19.54,60.1z"/>
						<path class="st4" d="M74.15,27.87c-0.75,1.04-1.49,2.08-2.17,3.05c-2.98-4.15-5.9-8.3-8.89-12.45
							c0.34-0.52,0.81-1.04,1.15-1.62c0.34-0.39,0.61-0.84,0.88-1.3c0.14-0.13,0.14-0.13,0.2,0c0.07,0.06,0.14,0.13,0.14,0.13
							c2.78,3.96,5.63,7.91,8.41,11.87C74.01,27.61,74.08,27.74,74.15,27.87z"/>
						<path class="st4" d="M18.59,22.29c-0.68-0.97-1.36-1.95-2.03-2.92c-0.14-0.13-0.14-0.26,0-0.39c0.61-0.84,1.29-1.75,1.9-2.66
							c2.17-3.05,4.34-6.16,6.51-9.21c0.14-0.13,0.14-0.26,0.27-0.32c0.75,1.04,1.49,2.08,2.24,3.11
							C24.56,13.99,21.64,18.14,18.59,22.29z"/>
						<path class="st4" d="M31.48,15.41c0.75,1.04,1.42,2.01,2.17,2.98c-2.98,4.15-5.9,8.3-8.82,12.45
							c-0.68-0.97-1.42-2.01-2.17-2.98C25.58,23.72,28.56,19.56,31.48,15.41z"/>
						<path class="st4" d="M80.25,19.18c-0.68,1.04-1.42,2.01-2.1,2.98c-0.14,0.13-0.14,0.13-0.27,0c-0.07-0.06-0.14-0.13-0.14-0.19
							c-2.78-3.89-5.56-7.85-8.34-11.74c-0.07-0.06-0.14-0.13-0.14-0.19c-0.07-0.13-0.14-0.13,0-0.32c0.68-1.04,1.42-2.01,2.1-2.98
							C74.35,10.87,77.34,15.02,80.25,19.18z"/>
						<path class="st4" d="M63.97,64.9c0-0.13,0.14-0.19,0.14-0.32c1.09-1.49,2.1-2.98,3.19-4.48c0.2-0.32,0.14-0.32,0.41,0
							c0.61,0.84,1.29,1.75,1.9,2.66c0.07,0.06,0.14,0.13,0.14,0.32c-0.14,0.13-0.2,0.19-0.34,0.32c-1.02,1.43-2.03,2.85-3.05,4.28
							c-0.2,0.26-0.2,0.26-0.34,0C65.33,66.78,64.65,65.81,63.97,64.9z"/>
						<path class="st4" d="M72.79,52.38c0.75,1.04,1.49,2.01,2.17,3.05c-1.15,1.62-2.37,3.31-3.6,4.99
							c-0.2-0.32-0.41-0.65-0.68-0.97c-0.41-0.58-0.88-1.3-1.36-1.88c-0.14-0.13-0.14-0.26,0-0.39
							C70.55,55.63,71.64,54.01,72.79,52.38L72.79,52.38z"/>
						<path class="st4" d="M73.67,68.6c0.68,0.97,1.36,1.95,2.03,2.92c0.14,0.13,0.07,0.19,0,0.32c-0.07,0.06-0.14,0.13-0.14,0.19
							c-1.02,1.43-2.03,2.85-3.05,4.28c-0.14,0.13-0.14,0.26-0.2,0.32c-0.81-1.04-1.49-2.08-2.24-3.11
							C71.3,71.91,72.52,70.29,73.67,68.6z"/>
						<path class="st4" d="M71.84,16c-0.75,1.04-1.49,2.01-2.17,3.05c-1.15-1.62-2.31-3.24-3.46-4.86c0.68-1.04,1.42-2.01,2.17-3.05
							C69.53,12.69,70.76,14.38,71.84,16z"/>
						<path class="st4" d="M81.2,64.19c-1.15,1.62-2.24,3.18-3.46,4.8c-0.14,0.13-0.2,0.13-0.34,0c-0.68-0.97-1.36-1.95-2.03-2.92
							c0-0.13,0.14-0.26,0.14-0.32c1.09-1.49,2.1-2.98,3.19-4.48c0.2-0.32,0.14-0.32,0.41,0c0.61,0.84,1.22,1.69,1.76,2.53
							C81.07,63.93,81.13,64.06,81.2,64.19z"/>
						<path class="st4" d="M73.67,18.53c0.07,0.06,0.14,0.13,0.14,0.13c1.09,1.56,2.17,3.05,3.19,4.61c0.2,0.26,0.2,0.26,0,0.52
							c-0.68,0.97-1.36,1.88-2.03,2.85c-0.14-0.06-0.14-0.19-0.27-0.32c-1.09-1.49-2.1-2.98-3.19-4.41c-0.2-0.32-0.2-0.26,0-0.58
							c0.61-0.84,1.29-1.75,1.9-2.66C73.6,18.59,73.6,18.59,73.67,18.53z"/>
						<path class="st4" d="M28.29,57.57c-0.75,1.04-1.49,2.08-2.24,3.11c-1.15-1.62-2.31-3.31-3.53-4.99
							c0.68-0.91,1.36-1.95,2.03-2.92c0.14-0.13,0.14-0.19,0.27-0.06C26.05,54.39,27.21,56.02,28.29,57.57z"/>
						<path class="st4" d="M27.55,73.72c-0.75,1.04-1.49,2.08-2.24,3.11c-1.15-1.62-2.31-3.24-3.53-4.93
							c0.07-0.13,0.14-0.19,0.2-0.32c0.61-0.84,1.22-1.75,1.83-2.59c0.14-0.13,0.14-0.13,0.34,0
							C25.24,70.61,26.39,72.17,27.55,73.72z"/>
						<path class="st4" d="M30.06,60.17c1.22,1.69,2.37,3.37,3.53,4.99c-0.68,1.04-1.42,2.01-2.24,3.11
							c-0.34-0.52-0.75-1.04-1.09-1.56c-0.75-1.04-1.49-2.08-2.24-3.18c-0.14-0.13-0.14-0.26-0.07-0.39
							C28.77,62.05,29.44,61.08,30.06,60.17z"/>
						<path class="st4" d="M19.95,69.38c-0.54-0.78-1.09-1.56-1.7-2.4c-0.54-0.78-1.09-1.56-1.63-2.27
							c-0.14-0.13-0.14-0.19-0.07-0.39c0.68-0.97,1.42-2.01,2.1-2.98c1.22,1.69,2.37,3.31,3.53,4.93
							C21.44,67.3,20.76,68.34,19.95,69.38z"/>
						<path class="st4" d="M75.98,56.79c0.68,0.91,1.36,1.95,2.03,2.92c0.14,0.13,0.14,0.19,0,0.32c-1.15,1.62-2.24,3.18-3.46,4.8
							c-0.75-1.04-1.49-2.08-2.17-3.05C73.6,60.1,74.76,58.48,75.98,56.79z"/>
						<path class="st4" d="M72.79,67.3c-0.07,0.06-0.07,0.13-0.14,0.13c-1.09,1.56-2.17,3.05-3.26,4.61c-0.14,0.26-0.2,0.26-0.34,0
							c-0.68-0.97-1.36-1.95-2.03-2.92c0.14-0.13,0.27-0.32,0.41-0.52c1.02-1.43,2.03-2.79,2.98-4.22c0.14-0.26,0.2-0.26,0.34,0
							C71.5,65.36,72.11,66.33,72.79,67.3z"/>
						<path class="st4" d="M59.5,49.34c0-0.13,0-0.19,0.14-0.19C59.56,49.21,59.56,49.4,59.5,49.34z"/>
					</g>
				</g>
			</g>
		</g>
	</g>
	<path class="st5" d="M78.01,80.86H19.07c-9.36,0-17.03-7.39-17.03-16.47V18.33c0-9.08,7.67-16.47,17.03-16.47h58.95
		c9.36,0,17.03,7.39,17.03,16.47v46.05C95.04,73.46,87.44,80.86,78.01,80.86z"/>
</g>
</svg>
