<?xml version="1.0" encoding="utf-8"?>
<!-- Generator: Adobe Illustrator 26.5.0, SVG Export Plug-In . SVG Version: 6.00 Build 0)  -->
<svg version="1.1" id="Layer_1" xmlns="http://www.w3.org/2000/svg" xmlns:xlink="http://www.w3.org/1999/xlink" x="0px" y="0px"
	 viewBox="0 0 100 100" style="enable-background:new 0 0 100 100;" xml:space="preserve">
<style type="text/css">
	.st0{clip-path:url(#SVGID_00000061432293748163971990000011304786554965980819_);}
	.st1{fill:#FF4553;}
	.st2{fill:#FFFFFF;}
	.st3{fill:#216CB7;}
	.st4{fill:none;stroke:#F0F1F1;stroke-width:0.6455;stroke-miterlimit:10;}
</style>
<g>
	<g>
		<g>
			<g>
				<defs>
					<path id="SVGID_1_" d="M79.79,84.91H19.7c-10.27,0-18.49-8.1-18.49-17.98V20.02c0-9.94,8.29-17.98,18.49-17.98h60.09
						c10.27,0,18.49,8.1,18.49,17.98v46.92C98.28,76.87,89.99,84.91,79.79,84.91z"/>
				</defs>
				<clipPath id="SVGID_00000128467883218952358650000011076958391946077830_">
					<use xlink:href="#SVGID_1_"  style="overflow:visible;"/>
				</clipPath>
				<g style="clip-path:url(#SVGID_00000128467883218952358650000011076958391946077830_);">
					<g>
						<g>
							<rect x="-0.5" y="-1.91" class="st1" width="100.41" height="29.96"/>
						</g>
						<g>
							<g>
								<rect x="-0.5" y="28.12" class="st2" width="100.41" height="29.96"/>
							</g>
						</g>
						<g>
							<rect x="-0.5" y="58.15" class="st3" width="100.41" height="29.96"/>
						</g>
					</g>
				</g>
			</g>
		</g>
	</g>
	<path class="st4" d="M80.5,84.91H18.92c-9.78,0-17.79-7.76-17.79-17.3V19.27c0-9.53,8.01-17.3,17.79-17.3H80.5
		c9.78,0,17.79,7.76,17.79,17.3v48.35C98.28,77.22,90.35,84.91,80.5,84.91z"/>
</g>
</svg>
