<?xml version="1.0" encoding="utf-8"?>
<!-- Generator: Adobe Illustrator 26.5.0, SVG Export Plug-In . SVG Version: 6.00 Build 0)  -->
<svg version="1.1" id="Layer_1" xmlns="http://www.w3.org/2000/svg" xmlns:xlink="http://www.w3.org/1999/xlink" x="0px" y="0px"
	 viewBox="0 0 100 100" style="enable-background:new 0 0 100 100;" xml:space="preserve">
<style type="text/css">
	.st0{clip-path:url(#SVGID_00000175317719774798883320000011996228043824023473_);}
	.st1{fill:#66103D;}
	.st2{fill:#FFFFFF;}
	.st3{fill:none;stroke:#F0F1F1;stroke-width:0.6455;stroke-miterlimit:10;}
</style>
<g>
	<g>
		<g>
			<g>
				<defs>
					<path id="SVGID_1_" d="M81.03,82.4H20.32c-10.38,0-18.68-7.99-18.68-17.72V18.44c0-9.8,8.38-17.72,18.68-17.72h60.71
						c10.38,0,18.68,7.99,18.68,17.72v46.24C99.78,74.48,91.41,82.4,81.03,82.4z"/>
				</defs>
				<clipPath id="SVGID_00000115509908991719604710000006154290067982779571_">
					<use xlink:href="#SVGID_1_"  style="overflow:visible;"/>
				</clipPath>
				<g style="clip-path:url(#SVGID_00000115509908991719604710000006154290067982779571_);">
					<g>
						<rect x="-0.01" y="-3.16" class="st1" width="101.44" height="88.31"/>
					</g>
					<g>
						<rect x="0.49" y="-3.16" class="st2" width="35.44" height="88.31"/>
						<polygon class="st1" points="34.64,-3.23 22.54,3.68 34.64,10.66 22.54,17.64 34.64,24.55 22.54,31.53 34.64,38.58 
							22.54,45.49 34.64,52.47 22.54,59.45 34.64,66.43 22.54,73.41 34.64,80.45 22.54,87.43 44.66,87.43 37.36,-1.42 						"/>
					</g>
				</g>
			</g>
		</g>
	</g>
	<path class="st3" d="M81.81,82.4H19.6c-9.88,0-17.97-7.65-17.97-17.05V17.71c0-9.4,8.09-17.05,17.97-17.05h62.21
		c9.88,0,17.97,7.65,17.97,17.05v47.65C99.78,74.81,91.76,82.4,81.81,82.4z"/>
</g>
</svg>
