<?xml version="1.0" encoding="utf-8"?>
<!-- Generator: Adobe Illustrator 26.5.0, SVG Export Plug-In . SVG Version: 6.00 Build 0)  -->
<svg version="1.1" id="Layer_1" xmlns="http://www.w3.org/2000/svg" xmlns:xlink="http://www.w3.org/1999/xlink" x="0px" y="0px"
	 viewBox="0 0 100 100" style="enable-background:new 0 0 100 100;" xml:space="preserve">
<style type="text/css">
	.st0{clip-path:url(#SVGID_00000154408522669315963420000003078485473332727191_);}
	.st1{fill:#6B9922;}
	.st2{fill:#FFFFFF;}
	.st3{fill:none;stroke:#F0F1F1;stroke-width:0.6455;stroke-miterlimit:10;}
</style>
<g>
	<g>
		<g>
			<g>
				<defs>
					<path id="SVGID_1_" d="M79.88,86.55H19.27c-10.36,0-18.66-8.22-18.66-18.23V20.75c0-10.08,8.36-18.23,18.66-18.23h60.62
						c10.36,0,18.66,8.22,18.66,18.23v47.58C98.54,78.34,90.18,86.55,79.88,86.55z"/>
				</defs>
				<clipPath id="SVGID_00000096758220753076169390000004237913209371809437_">
					<use xlink:href="#SVGID_1_"  style="overflow:visible;"/>
				</clipPath>
				<g style="clip-path:url(#SVGID_00000096758220753076169390000004237913209371809437_);">
					<g>
						<rect x="-1.1" y="-0.72" class="st1" width="101.29" height="90.87"/>
					</g>
					<g>
						<path class="st2" d="M50.93,34.77c-0.21,0.07-0.43,0.07-0.64,0.14c-0.64,0.35-1.36,0.76-2.07,1.1
							c-0.14,0.07-0.21,0.14-0.36,0.35c0.14,0,0.29,0.07,0.43,0.07c1.86-0.07,3.72-0.14,5.58-0.21c0.14,0,0.36,0,0.5,0
							c0.14,0.07,0.29,0.21,0.21,0.41c-0.14,0.35-0.21,0.83-0.36,1.17c-0.14,0.41-0.43,0.48-0.71,0.55
							c-0.71,0.21-1.43,0.35-2.14,0.62c-0.79,0.35-1.57,0.69-2.36,1.1c-0.14,0.14-0.36,0.21-0.57,0.35
							c-0.36,0.35-0.36,0.83-0.14,1.24c0.29,0.48,0.64,0.69,1,0.9c0.14,0.14,0.36,0.14,0.5,0.21c0.36,0.14,0.43,0.35,0.36,0.83
							c-0.21,0.97-0.14,1.17-1.07,1.1c-1-0.14-1.93-0.48-2.79-1.1c-0.86-0.69-1.57-1.66-2-2.97c-0.07-0.14-0.14-0.28-0.14-0.48
							C44,40.29,44,40.43,43.86,40.57c-0.64,1.1-1.22,2.14-2,2.97c-0.36,0.41-0.86,0.83-1.36,1.1c-0.43,0.35-1,0.35-1.5,0.35
							c-0.79-0.14-1.22-0.69-1.5-1.73c-0.07-0.28-0.14-0.55-0.14-0.9c-0.14,0.07-0.21,0.14-0.36,0.14
							c-1.29,0.76-2.57,1.31-3.86,1.86c-0.21,0.14-0.21,0.14-0.5-0.07c0.07-0.35,0.29-0.35,0.36-0.48c1.22-0.9,2.43-1.86,3.65-2.83
							c0.5-0.35,0.86-0.9,1-1.73c0.14-0.62,0.36-1.17,0.5-1.86c0.07-0.14,0.14-0.35,0.21-0.62c0.29,0.35,0.14,0.76,0.14,1.1
							c0,0.35-0.07,0.76-0.07,1.17c0.14-0.14,0.21-0.14,0.29-0.21c0.57-0.62,1.07-1.17,1.57-1.86c0.64-0.9,0.71-1.59,0.36-2.69
							c-0.14-0.48-0.36-0.9-0.5-1.38C40,32.63,40,32.28,39.71,32.14c-0.14-0.14-0.29-0.41-0.14-0.69c0.14-0.48,0.29-0.9,0.43-1.38
							c0.14-0.28,0.29-0.28,0.43-0.07c0.43,0.55,0.79,1.1,1.07,1.86c0.14,0.35,0.14,0.35-0.29,0.62c0.07,0.14,0.07,0.35,0.14,0.48
							c0.14,0.55,0.21,1.1,0.36,1.59c0.21,1.52-0.07,2.83-0.79,3.94c-0.64,1.04-1.36,1.93-2.29,2.62c-0.14,0.14-0.36,0.28-0.36,0.62
							c0.07,0.41,0.14,0.76,0.43,0.9c0.21,0.14,0.43,0.14,0.64,0.14c0.5-0.07,0.93-0.28,1.36-0.62c1.14-1.04,2.07-2.49,2.72-4.14
							c0.14-0.28,0.07-0.55,0-0.83c-0.43-1.86-0.86-3.8-1.36-5.66c-0.29-1.1,0-1.86,0.36-2.69c0,0,0.07-0.07,0.14-0.07
							c0.07,0.14,0.14,0.35,0.21,0.48c0.93,2.62,1.57,5.32,1.79,8.22c0.07,0.35,0.14,0.83,0.14,1.17c0.36,1.8,0.93,2.69,2.29,3.18
							c-0.29-1.93,0.64-2.83,1.64-3.52c-0.36-0.48-0.86-0.62-1.29-0.69c-0.64-0.07-1.22-0.14-1.86-0.14
							c-0.86-0.07-0.86-0.14-0.64-1.24c0.14-0.9,0.57-1.52,1.14-1.8c0.86-0.35,1.72-0.9,2.57-1.24c0.14-0.07,0.21-0.14,0.36-0.14
							c0-0.07,0-0.14,0-0.14c-0.36-1.17-0.07-2.76,0.71-3.38c0.36-0.28,0.71-0.28,1.14-0.14c0.5,0.21,1,0.62,1.36,1.1
							c0.57,0.62,0.64,1.52,0.21,2.42c-0.36,0.69-0.86,1.1-1.36,1.38C51.29,34.35,51.15,34.56,50.93,34.77z M51.65,32.35
							c0-0.07,0-0.14,0-0.14c-0.36-0.28-0.71-0.69-1.14-0.83c-0.07,0.48-0.07,0.9,0.14,1.31C50.93,32.56,51.29,32.49,51.65,32.35z"
							/>
						<path class="st2" d="M63.44,69.08c-0.14,0-0.36,0-0.57,0c-9.44,0-18.8,0-28.23,0c-1.07,0-2.14-0.14-3.15-0.21
							c-0.64-0.07-1.36-0.35-1.86-0.9c-0.14-0.14-0.36-0.35-0.5-0.55c0-0.14,0.07-0.14,0.07-0.14s0,0,0.07,0s0.14,0,0.14,0
							c11.37,0,22.8,0,34.17,0c0,0,0,0,0.07-0.07c0.14-0.21,0.07-0.41-0.07-0.62c-0.07-0.14-0.14-0.14-0.14-0.28
							c-0.14-0.35-0.14-0.48,0-0.83c0.36-0.76,0.86-0.62,1.14,0.21c0.14,0.35,0,0.48-0.14,0.69c-0.14,0.21-0.36,0.41-0.14,0.9
							c0.14,0,0.29,0,0.43,0c1.43,0,2.93,0,4.36,0c0.29,0,0.57,0.07,0.86,0.14c0.36,0.14,0.64,0.41,0.71,0.97
							c0.14,0.69,0.14,1.38-0.07,2.07c-0.14,0.69-0.71,1.04-1.22,0.62c-0.21-0.14-0.5-0.21-0.71-0.21c-0.29,0-0.57,0-0.86,0
							c-0.21,0-0.5,0-0.71,0.21s-0.57,0.21-0.79,0c-0.21-0.21-0.43-0.21-0.64-0.21c-0.21,0-0.43,0-0.64,0
							c-0.29,0-0.5,0.07-0.64,0.35c-0.29,0.35-0.36,0.35-0.64,0c-0.07-0.07-0.07-0.14-0.14-0.14c-0.29-0.41-0.29-0.62,0-1.1
							C63.44,69.71,63.59,69.5,63.44,69.08z M68.59,70.19c0-0.35,0-0.69,0-1.04c-1.5,0-3.07,0-4.57,0
							c-0.07,0.62,0.14,1.04,0.57,1.04c0.36,0,0.64,0,0.93,0c0.14,0,0.29-0.14,0.43-0.14c0.36-0.21,0.64-0.28,0.93,0
							c0.14,0.07,0.21,0.14,0.36,0.14C67.66,70.19,68.09,70.19,68.59,70.19z"/>
						<path class="st2" d="M25.42,35.8c0.14,0.41,0.14,0.9,0.07,1.38c-0.14,1.04-0.14,2.07,0.07,3.04c0.29,1.66,0.93,2.49,2.14,2.49
							c0.43,0,0.86-0.14,1.36-0.21c1.07-0.35,2-0.97,2.86-1.86c0.64-0.76,1.14-1.66,1.14-2.9c0.07-1.1,0-2.21,0-3.31
							c-0.5,0.14-0.57,0.21-0.5,0.9c0.14,1.31-0.14,2.42-0.71,3.38c-0.86,1.38-2,2.35-3.36,2.62c-1.22,0.35-2.36-0.9-2.5-2.62
							c-0.14-1.1,0-2.28,0.21-3.38c0.07-0.21,0.14-0.41,0.21-0.62c0.07,0,0.07,0.07,0.14,0.07c0,0.14,0,0.35,0,0.48
							c0,0.55-0.07,1.1-0.07,1.59c0,0.28,0.07,0.62,0.14,0.9c0.36,1.59,1.07,2.14,2.14,1.66c1.07-0.48,1.86-1.52,2.64-2.62
							c0.21-0.35,0.29-0.83,0.21-1.38c-0.36,0.14-0.71,0.28-1.07,0.41c-0.36,0.14-0.64,0.14-1-0.07c-0.29-0.14-0.43-0.35-0.43-0.83
							c0-0.35-0.07-0.76-0.07-1.17c0-1.04,0.36-1.86,0.86-2.42c0.36-0.35,0.71-0.28,1,0.07c0.36,0.41,0.64,0.97,1.07,1.45
							c0.07,0.14,0.14,0.28,0.21,0.41c0.21-0.14,0.43-0.35,0.71-0.62c-0.07-0.69-0.07-1.38-0.14-2.07c-0.14-2.42-0.36-4.7-0.64-7.11
							c0-0.35,0-0.62-0.07-0.97c0-0.28,0-0.55-0.07-0.76c-0.14-0.35-0.07-0.69,0.14-1.04c0.14-0.21,0.29-0.35,0.36-0.62
							c0.29-0.35,0.36-0.28,0.5,0.14c0.07,0.21,0.14,0.41,0.14,0.62c0.21,0.83,0.43,1.59,0.64,2.35c0.07,0.14,0.07,0.28,0.14,0.41
							c0.07,0.69-0.14,0.9-0.64,0.83c0.14,2.42,0.29,4.83,0.36,7.39c0.21-0.28,0.36-0.48,0.57-0.62c0.14-0.14,0.21-0.14,0.36-0.14
							c0.07,0.07,0.14,0.28,0.14,0.41c0,0.35,0,0.69,0.07,1.04c0.14,0.83,0.57,1.1,1,0.62c0.36-0.35,0.64-0.9,0.71-1.59
							c0.07-0.21,0.14-0.41,0.14-0.62c0.07,0,0.07,0,0.14,0c0.07,0.21,0.07,0.41,0.14,0.62c0.07,0.35,0.14,0.62,0.14,0.9
							c0.07,0.21,0.14,0.35,0.29,0.55c0.21,0.28,0.5,0.14,0.64-0.21c0.14-0.35,0.14-0.83,0-1.17c-0.14-0.41,0.14-0.83,0.36-0.9
							c0.14-0.07,0.21,0.14,0.29,0.35c0.14,0.69,0.14,1.38,0,2.07c-0.07,0.55-0.14,1.1-0.64,1.24c-0.5,0.14-0.86,0.07-1.29-0.41
							c-0.07-0.14-0.14-0.21-0.21-0.35c-0.14,0.14-0.21,0.28-0.36,0.41c-0.36,0.48-0.86,0.62-1.36,0.62c-0.43,0-0.79-0.28-1.07-0.83
							c0,0.14-0.07,0.28-0.07,0.41c0,1.04,0.07,2,0.07,3.04c0,0.76-0.07,1.59-0.14,2.35c-0.21,1.52-0.79,2.69-1.72,3.45
							c-1.5,1.17-3.15,1.93-4.86,1.8c-1.07-0.14-1.79-0.83-2.14-2.28c-0.5-2.14-0.36-4.14,0.14-6.21c0-0.07,0.07-0.14,0.14-0.21
							C25.27,35.8,25.34,35.8,25.42,35.8z M31.13,33.52c-0.29-0.55-0.5-0.97-1-0.9c-0.07,0.21-0.07,0.35-0.07,0.62
							c0,0.41,0.14,0.62,0.36,0.62C30.7,33.73,30.85,33.59,31.13,33.52z"/>
						<path class="st2" d="M68.52,22.48c0.21,0.41,0.36,0.76,0.57,1.1c0,0.07,0.07,0.07,0.14,0.14c-0.14-0.76-0.07-1.45-0.21-2.14
							c-0.21-0.83,0-1.86,0.64-2.42c0.07,0.14,0.14,0.28,0.21,0.41c0.36,1.1,0.64,2.21,0.86,3.45c-0.14,0-0.29,0.07-0.36,0.07
							c0,0.07-0.07,0.14,0,0.14c0.07,0.9,0.14,1.73,0.14,2.62c0,0.14,0,0.35,0.07,0.48c0.43,0.9,0.86,1.73,1.43,2.55
							c0-0.14,0-0.21,0-0.35c-0.36-2.42-0.5-4.76-0.64-7.18c-0.07-0.83,0.07-1.45,0.36-2c0.29-0.41,0.43-0.41,0.64,0.14
							c0.07,0.21,0.14,0.41,0.14,0.62c0.14,0.9,0.36,1.66,0.5,2.55c0.14,0.62,0.07,0.76-0.36,0.97c0,0.62,0.07,1.38,0.07,2.07
							c0.14,1.66,0.21,3.31,0.36,4.9c0,0.35,0.14,0.76,0.29,1.1c0.57,1.04,1.07,2.07,1.57,3.11c0.29,0.55,0.5,1.1,0.71,1.73
							c0.29,0.76,0.29,1.59,0.14,2.42c-0.14-0.14-0.21-0.35-0.29-0.55c-0.64-1.31-1.29-2.62-1.93-3.94
							c-0.07-0.07-0.07-0.14-0.14-0.28c0,0.21,0,0.35,0,0.55c0,0.9,0.07,1.73,0,2.62c0,0.48-0.14,0.9-0.14,1.38
							c0,0.14-0.14,0.28-0.14,0.41c-0.14-0.35-0.14-0.62-0.14-0.9c0.07-1.24,0-2.42-0.14-3.66c-0.07-0.55-0.14-1.1-0.14-1.66
							c0-0.14-0.07-0.35-0.14-0.41c-0.57-1.04-1.07-2.07-1.64-3.04c0,0-0.07-0.07-0.14-0.07c0,0.35,0,0.62,0,0.97
							c0.14,2.28,0.21,4.49,0.29,6.77c0,0.62-0.07,1.24-0.14,1.86c-0.07,0.28-0.14,0.62-0.21,0.9c-0.43,1.1-1.14,1.66-2.07,1.38
							c-0.64-0.21-1.14-0.69-1.5-1.38c-0.14-0.14-0.14-0.35-0.29-0.55c-0.14,0.28-0.36,0.48-0.43,0.69c-0.14,0.41-0.36,0.9-0.5,1.38
							c-0.36,0.9-0.64,1.66-1.07,2.55c-0.07,0.14-0.14,0.35-0.29,0.48c-0.21,0.28-0.43,0.35-0.71,0.14c-0.5-0.35-0.93-0.9-1.36-1.59
							c-0.21-0.35-0.29-0.9-0.29-1.38c0-1.31,0.21-2.55,0.43-3.8c0-0.07,0.07-0.14,0.14-0.21c0.14,0.07,0.14,0.28,0.14,0.48
							c0,0.62,0,1.24,0.07,1.86c0.07,0.62,0.21,1.24,0.36,1.86c0.07,0.14,0.14,0.35,0.14,0.41c0.29,0.55,0.57,0.62,0.86,0.07
							c0.14-0.21,0.21-0.55,0.36-0.76c0.5-1.17,0.93-2.42,1.43-3.59c0.14-0.21,0.21-0.48,0.36-0.62c0.21-0.28,0.43-0.35,0.64-0.07
							c0.21,0.28,0.36,0.55,0.57,0.9c0.14,0.35,0.36,0.62,0.64,0.9c0.5,0.55,1.07,0.35,1.36-0.41c0.14-0.48,0.29-1.04,0.21-1.52
							c0-1.59-0.07-3.18-0.14-4.7c-0.07-1.38-0.14-2.9-0.21-4.28c-0.07-0.62-0.14-1.24-0.5-1.8c-0.64-1.1-1.36-2.21-2-3.38
							c-0.36-0.55-0.57-1.1-0.43-1.86c0.07-0.35,0-0.76,0-1.1c0-0.14,0.07-0.35,0.14-0.41c0.14-0.07,0.21,0.07,0.36,0.14
							c0.07,0,0.14,0.14,0.14,0.14c0.36,0.55,0.86,1.1,1.22,1.66c0.07,0.14,0.14,0.14,0.14,0.28C68.8,22.13,68.8,22.2,68.52,22.48z"
							/>
						<path class="st2" d="M28.77,27.79c-0.36,0.62-0.64,1.1-0.86,1.66c-0.07,0.14-0.07,0.35-0.07,0.48
							c0.07,1.52,0.14,2.97,0.21,4.49c0.07,0.9,0.07,1.8-0.29,2.55c-0.07,0.07-0.07,0.14-0.14,0.21c0,0-0.07,0.07-0.14,0.07
							c-0.14-0.76-0.14-1.52-0.14-2.28c-0.14-0.83-0.14-1.59-0.21-2.42c-0.07-0.76-0.14-1.52-0.21-2.35c-0.07,0-0.14-0.07-0.14-0.07
							c-1.22-0.14-1.64-1.31-1.79-2.49c-0.14-0.9-0.07-1.8,0.07-2.69c0.07-0.35,0.07-0.62-0.07-1.1c-0.14,0.35-0.14,0.48-0.21,0.69
							c-0.14,0.9-0.29,1.86-0.43,2.76c-0.14,0.55-0.21,1.1-0.36,1.59c-0.07,0.21-0.14,0.41-0.29,0.62
							c-0.29,0.41-0.64,0.35-0.86-0.07c-0.14-0.14-0.14-0.35-0.21-0.55c-0.57-1.8-0.79-3.66-0.5-5.66c0.07-0.28,0.14-0.55,0.21-0.83
							c0.21,0.21,0.14,0.41,0.14,0.62c0.07,0.97,0.14,1.86,0.14,2.9c0.07,0.35,0.14,0.83,0.21,1.17c0.07,0.21,0.14,0.41,0.21,0.62
							c0.14,0.35,0.36,0.28,0.5-0.07c0.07-0.21,0.14-0.41,0.14-0.62c0.07-0.48,0.14-1.04,0.14-1.52c0.07-1.24,0.36-2.42,0.86-3.38
							c0.14-0.21,0.21-0.41,0.36-0.55c0.36-0.35,0.79-0.07,0.71,0.55c0,0.55-0.14,1.04-0.14,1.59c-0.14,0.83-0.21,1.66-0.07,2.49
							c0.07,0.35,0.21,0.76,0.36,1.1c0.14,0.35,0.36,0.62,0.71,0.62c0-0.35,0-0.62,0-0.97c-0.07-0.97-0.14-1.86-0.14-2.9
							c-0.07-0.55-0.14-1.04-0.14-1.59c-0.07-0.35-0.07-0.62-0.14-0.9c0-0.14-0.07-0.35-0.14-0.41c-0.14-0.55,0-1.24,0.36-1.59
							c0.14-0.14,0.21-0.07,0.29,0.07c0.36,0.69,0.71,1.45,0.79,2.42c0,0.21-0.14,0.41-0.14,0.62c-0.07,0.14-0.14,0.28-0.14,0.41
							c0.14,1.52,0.21,3.04,0.36,4.63c0.5-0.35,0.79-1.17,0.71-1.86c-0.14-0.83-0.21-1.66-0.36-2.42c-0.14-0.76-0.07-1.52,0.21-2.35
							c0.14,0.14,0.21,0.14,0.29,0.28c0.36,0.62,0.64,1.31,0.57,2.14c-0.14,1.04,0.07,2.07,0.29,3.04c0.14,0.83,0.57,1.24,1.14,1.24
							c0.43,0,0.64-0.21,0.57-0.9c-0.14-1.17-0.36-2.35-0.64-3.38c-0.07-0.21-0.14-0.41-0.14-0.62c-0.07-0.35-0.07-0.62,0.14-0.9
							c0.14-0.14,0.21-0.35,0.36-0.48c0.14-0.28,0.36-0.35,0.5-0.07c0.21,0.35,0.43,0.62,0.64,1.04c0.29,0.62,0.29,0.83-0.14,1.24
							c0.14,0.9,0.29,1.73,0.36,2.62c0.07,0.21,0.07,0.48,0.07,0.76c0.07,1.52-0.57,2.35-1.57,2.62c-0.64,0.21-1.14-0.28-1.36-1.1
							C28.92,28.28,28.85,28.07,28.77,27.79z"/>
						<path class="st2" d="M47,18.82c0.36,0.35,0.36,0.83,0.5,1.17c0.21,1.1,0.29,2.28,0.36,3.38c0.07,0.9,0.21,1.86,0.5,2.62
							c0.14,0.28,0.21,0.55,0.36,0.76c0.43,0.62,0.93,0.35,1.07-0.48c0.14-0.62,0.07-1.24-0.07-1.86c-0.21-1.1-0.43-2.14-0.71-3.18
							c-0.14-0.35-0.14-0.69,0.14-0.97c0.14-0.21,0.21-0.48,0.36-0.69c0.14-0.35,0.29-0.35,0.5-0.14c0.57,0.55,0.86,1.31,1.07,2.14
							c0.07,0.14,0.07,0.41-0.07,0.55c-0.14,0.21-0.29,0-0.36-0.14c-0.14-0.07-0.14-0.14-0.36-0.35c0.07,0.28,0.07,0.35,0.14,0.55
							c0.21,0.97,0.36,1.93,0.36,2.9c0,0.83-0.14,1.59-0.36,2.28c-0.43,1.17-1.22,1.45-2,0.76c-0.36-0.35-0.64-0.76-1-1.1
							c-0.07,0.14-0.14,0.28-0.21,0.35c-0.43,0.83-1,1.38-1.64,1.66c-0.93,0.35-1.64-0.14-2-1.38c-0.14-0.69-0.21-1.45-0.21-2.14
							c0-0.48,0-1.04,0-1.59c-0.14,0-0.21,0.28-0.29,0.41c-0.14,0.62-0.29,1.1-0.43,1.73c-0.14,0.41-0.21,0.9-0.36,1.31
							C42.21,27.59,42.14,27.79,42,28c-0.29,0.48-0.64,0.62-0.93,0.21c-0.14-0.14-0.29-0.35-0.36-0.48
							c-0.93-1.52-1.14-3.31-0.86-5.18c0.07-0.35,0.14-0.76,0.29-1.1c0.07-0.14,0.14-0.21,0.14-0.35l0.07,0.07
							c0,0.14-0.07,0.35-0.07,0.55c-0.14,1.04-0.14,2.07,0,3.04c0.07,0.55,0.14,1.1,0.43,1.52c0.36,0.62,0.64,0.55,0.86-0.14
							c0.36-1.17,0.79-2.42,1.14-3.59c0.14-0.55,0.43-1.04,0.64-1.52c0.14-0.28,0.29-0.55,0.57-0.41c0.21,0.14,0.36,0.62,0.36,1.04
							c-0.07,0.69-0.14,1.45-0.14,2.14c-0.07,0.76,0,1.52,0,2.28c0.07,0.97,0.5,1.52,1.14,1.17c1-0.41,1.5-1.24,1.57-2.62
							c0.07-1.31-0.14-2.62-0.36-3.87c-0.14-0.55-0.14-0.97,0.14-1.45C46.79,19.37,46.86,19.16,47,18.82z"/>
						<path class="st2" d="M55.58,42.36c-0.21-0.21-0.14-0.41-0.14-0.62c0.43-2.28,0.14-4.49,0-6.77c-0.21-2.35-0.43-4.63-0.64-6.97
							c-0.07-0.35-0.14-0.62-0.21-0.9c-0.79-1.52-1.64-3.04-2.43-4.56c-0.14-0.14-0.29-0.35-0.36-0.41
							c-0.21-0.14-0.36-0.41-0.36-0.83c0-0.48-0.07-1.04,0-1.52c0-0.14,0.07-0.41,0.14-0.55c0.14-0.14,0.36-0.07,0.43,0.14
							c0.64,0.83,1.36,1.66,1.93,2.49c0,0.07,0.07,0.07,0.07,0.14c0.07,0.14,0.14,0.35,0.14,0.55c0,0.07-0.21,0.14-0.36,0.14
							c-0.07,0-0.14,0-0.14,0c0.07,0.41,0.64,1.59,1.07,2.14c0-0.21,0-0.35,0-0.48c-0.07-0.62-0.14-1.24-0.14-1.86
							c0-0.14-0.07-0.35-0.14-0.55c-0.14-0.35-0.14-0.69-0.07-1.1c0.07-0.28,0.14-0.55,0.21-0.83c0.14-0.35,0.36-0.35,0.57-0.07
							c0.07,0.07,0.07,0.14,0.14,0.28c0.29,0.97,0.57,1.93,0.86,2.9c0.07,0.14,0.07,0.28,0.14,0.41c0.14,0.62,0,0.69-0.43,0.69
							c0.07,1.04,0.07,2.07,0.14,3.04c0,0.21,0.14,0.35,0.21,0.62c0.86,2.07,1.86,4.14,2.72,6.21c0.43,1.04,0.71,2.14,1,3.25
							c0.14,0.41,0.14,0.9,0.21,1.31c0,0.14,0,0.35-0.07,0.48c-0.07,0-0.07,0.07-0.14,0.07c-0.14-0.14-0.21-0.35-0.29-0.62
							c-0.86-2.9-2.14-5.45-3.36-8.15c-0.07-0.14-0.14-0.21-0.14-0.35c0,0-0.07-0.07-0.14-0.07c0.07,0.76,0.07,1.52,0.14,2.28
							c0.14,1.86,0.36,3.8,0.36,5.66c-0.07,1.17-0.14,2.42-0.5,3.52C55.79,41.95,55.65,42.16,55.58,42.36z"/>
						<path class="st2" d="M75.81,19.16c0.29,0.35,1,2.21,1.22,3.31c0.07,0.21,0.07,0.41,0.07,0.69c-0.14-0.07-0.29-0.07-0.43-0.14
							c0,0.07-0.07,0.14-0.07,0.14c0.07,1.45,0.14,2.9,0.21,4.35c0.21,2.76,0.5,5.52,0.43,8.35c0,1.1-0.14,2.14-0.21,3.18
							c-0.43,3.18-1.79,4.9-4,5.39c-0.21,0.07-0.43,0.21-0.71,0c0-0.28,0.14-0.35,0.29-0.55c0.29-0.28,0.64-0.55,0.86-0.9
							c0.5-0.55,1-1.04,1.43-1.66c0.86-1.1,1.29-2.55,1.29-4.14c0-1.31-0.07-2.62-0.14-3.94c-0.14-2.07-0.29-4.14-0.5-6.21
							c-0.14-2.07-0.36-4.14-0.57-6.21c0-0.21,0-0.41,0.07-0.62C75.31,19.85,75.52,19.51,75.81,19.16z"/>
						<path class="st2" d="M61.23,23.58c-0.14,0-0.29,0-0.43,0c-0.07,0.97,0,1.93,0.07,2.9c0.29,3.38,0.57,6.84,0.57,10.29
							c0,1.17-0.07,2.35-0.21,3.45c-0.14,0.9-0.43,1.66-0.86,2.35c-0.21,0.35-0.43,0.69-0.71,1.1c-0.43,0.62-0.93,1.1-1.64,1.24
							c-0.5,0.14-1.07,0.14-1.64,0.14c-0.14,0-0.21-0.07-0.36-0.14c0-0.07,0-0.14,0-0.14c0.14-0.14,0.29-0.28,0.43-0.35
							c1.36-0.41,2.29-1.66,3.15-2.97c0.71-1.04,1-2.35,0.86-3.73c-0.14-1.66-0.14-3.38-0.21-5.11c-0.14-2.69-0.36-5.39-0.57-8.08
							c-0.07-0.62-0.14-1.31-0.21-1.93c-0.07-0.35-0.14-0.62-0.14-0.97c-0.14-0.48-0.07-0.9,0.21-1.24
							c0.14-0.28,0.36-0.55,0.57-0.76c0.14-0.14,0.29-0.14,0.36,0.07c0.07,0.21,0.14,0.41,0.14,0.69c0.14,0.83,0.36,1.66,0.5,2.42
							C61.23,23.17,61.23,23.37,61.23,23.58z"/>
						<path class="st2" d="M63.51,41.19c0-0.14,0-0.28,0-0.35c0.29-1.38,0.14-2.9,0-4.28c-0.29-2.55-0.5-5.11-0.71-7.6
							c-0.21-2.21-0.36-4.49-0.71-6.7c-0.14-0.97-0.07-1.86,0.43-2.62c0.07-0.14,0.14-0.14,0.21-0.28c0.14,0.21,0.21,0.41,0.29,0.62
							c0.14,0.41,0.14,0.9,0.36,1.24c0.21,0.62,0.43,1.31,0.64,2c0.07,0.14,0.14,0.35,0.14,0.62c-0.36,0.21-0.57-0.14-0.86-0.14
							c0,0.28,0,0.55,0,0.76c0.29,3.38,0.57,6.7,0.86,10.08c0.07,0.83,0.21,1.66,0.29,2.42c0.14,1.31-0.07,2.55-0.43,3.73
							c-0.07,0.21-0.14,0.35-0.29,0.62C63.59,41.26,63.59,41.26,63.51,41.19z"/>
						<path class="st2" d="M34.92,26.27c0.07-0.35,0.29-0.41,0.43-0.62c0.71-0.62,1.43-1.38,2.07-2.35c0.14-0.28,0.36-0.55,0.5-0.9
							c-0.43-0.62-0.5-1.38-0.29-2.14c0.14-0.41,0.36-0.83,0.71-0.9c0.43-0.21,0.86,0.14,0.86,0.76c0.07,0.55-0.07,1.04-0.14,1.52
							C39,21.92,38.93,22.13,39,22.41c0.07,0.28-0.07,0.41-0.21,0.55c-0.14,0.07-0.29,0.14-0.36,0.35c-0.79,1.38-1.86,2.28-3.07,2.9
							C35.28,26.41,35.14,26.48,34.92,26.27z M38.57,20.68c-0.07,0-0.07-0.07-0.14-0.07c-0.14,0.21-0.21,0.41-0.07,0.76
							C38.42,21.16,38.5,20.89,38.57,20.68z"/>
						<path class="st2" d="M23.34,37.67c0.14,0.69,0.14,1.31,0,1.86c-0.14,0.62-0.29,1.38-0.21,2.07c0,0.28,0.07,0.55,0.14,0.76
							c0.14,0.35,0.36,0.41,0.57,0.07c0.14-0.14,0.21-0.35,0.36-0.48c0,0,0.07,0,0.14-0.07c0.07,0.07,0.14,0.14,0.14,0.21
							c0.07,0.55,0,1.04-0.21,1.45c-0.14,0.41-0.43,0.62-0.79,0.62c-0.36-0.07-0.64-0.41-0.64-0.9c-0.07-0.83-0.14-1.66-0.07-2.42
							c0.14-0.97,0.36-1.93,0.64-2.9C23.2,37.87,23.27,37.87,23.34,37.67z"/>
						<path class="st2" d="M66.8,28.41c0-0.48-0.07-0.97-0.07-1.45c-0.07-0.62,0.07-1.1,0.43-1.38c0.21-0.21,0.36-0.21,0.5,0.14
							c0.21,0.55,0.21,0.55,0.14,0.97c-0.07,0-0.14,0-0.14,0c-0.36-0.14-0.43-0.14-0.5,0.48c0,0.55,0,1.1,0,1.66
							c0,0.35,0,0.76-0.14,1.1c-0.36-0.14-0.36-0.62-0.5-1.04c-0.14-0.35-0.29-0.69-0.43-1.1c-0.14,0.07-0.14,0.14-0.21,0.14
							c-0.21,0.14-0.36,0-0.36-0.28c0-0.35,0-0.62,0-0.9c0-0.14,0.14-0.35,0.21-0.35c0.14-0.07,0.29,0.07,0.36,0.14
							c0.14,0.28,0.29,0.62,0.36,0.9C66.52,27.79,66.59,28.14,66.8,28.41C66.66,28.48,66.73,28.48,66.8,28.41z"/>
						<path class="st2" d="M22.41,34.97c0.14-0.14,0.21-0.35,0.36-0.55c0.86-1.38,2-2.35,3.29-2.9c0.14-0.07,0.36-0.14,0.36,0.14
							c0.14,0.28,0.07,0.69-0.14,0.83c-0.07,0.07-0.14,0.14-0.21,0.14c-1.22,0.55-2.43,1.31-3.5,2.35
							C22.48,34.97,22.48,34.97,22.41,34.97C22.48,35.04,22.48,35.04,22.41,34.97z"/>
						<path class="st2" d="M54.58,42.91c-0.57,0.62-1.07,1.24-1.64,1.52c-0.14,0.07-0.21,0.07-0.29,0.07
							c-0.57,0.07-0.79-0.35-0.64-1.1c0.07-0.21,0.07-0.35,0.07-0.62c0-0.07,0-0.07-0.07-0.14c-0.14,0.07-0.36,0.14-0.57,0.14
							c0,0-0.07-0.07-0.14-0.14c0.36-0.41,0.71-0.76,1.14-0.9c0.14-0.07,0.29,0.14,0.29,0.35c0,0.21-0.14,0.35-0.14,0.62
							c-0.07,0.28-0.14,0.55,0.07,0.9c0.14-0.07,0.36-0.14,0.57-0.21c0.29-0.14,0.5-0.35,0.79-0.48
							C54.08,42.85,54.29,42.64,54.58,42.91z"/>
						<path class="st2" d="M70.23,43.26c0.14,0.07,0.29,0.07,0.36,0.07c0.21,0.14,0.36,0.35,0.14,0.62
							c-0.36,0.41-0.79,0.69-1.29,0.76c-0.14,0-0.29-0.14-0.29-0.28c-0.07-0.14,0.07-0.35,0.14-0.48c0.14-0.14,0.21-0.28,0.36-0.41
							c0.14-0.28,0.14-0.41-0.07-0.62c-0.07-0.07-0.14-0.07-0.14-0.14c-0.07-0.14-0.14-0.35-0.14-0.41c0-0.14,0.14-0.35,0.21-0.35
							c0.14-0.07,0.36-0.07,0.5-0.07c0.43,0.07,0.5,0.28,0.36,0.9C70.38,42.91,70.31,43.05,70.23,43.26z"/>
						<path class="st2" d="M48,29.8c0.21,0.62,0.36,1.1,0.29,1.66c-0.14,0.62-0.43,0.9-0.86,0.41c-0.07-0.07-0.07-0.07-0.14-0.14
							c-0.07,0.14-0.14,0.21-0.14,0.35c-0.21,0.48-0.57,0.48-0.79,0c-0.21-0.55-0.29-1.1-0.07-1.8c0.21,0.41,0.14,1.04,0.5,1.31
							c0.36-0.35,0.14-0.97,0.36-1.38c0.36,0.28,0.21,0.9,0.64,1.1C48,30.97,47.79,30.35,48,29.8z"/>
						<path class="st2" d="M65.8,34.08c-0.14-0.35,0-0.62,0.14-0.76c0.21-0.21,0.36-0.41,0.64-0.69c0.57-0.62,1.14-1.24,1.72-1.86
							c0.14-0.14,0.21-0.21,0.36-0.28c0.29,0.83,0.21,1.1-0.29,1.45c-0.64,0.55-1.36,1.1-2,1.73C66.09,33.8,65.94,33.87,65.8,34.08z
							"/>
						<path class="st2" d="M74.02,20.82c0.5,0.9,0.64,1.86,0.64,2.9c0.07,1.1-0.07,1.45-0.36,1.86c-0.07-0.14-0.07-0.28-0.14-0.35
							c-0.07-1.1-0.21-2.14-0.64-3.04C73.45,21.65,73.52,21.3,74.02,20.82z"/>
						<path class="st2" d="M57.65,23.65c0-0.35-0.07-0.55,0-0.76c0.14-0.83-0.07-1.38-0.43-1.93c-0.29-0.35-0.36-0.62-0.14-1.1
							c0.21-0.48,0.43-0.55,0.64-0.07c0.36,0.83,0.57,1.66,0.43,2.62c-0.07,0.35-0.14,0.62-0.29,0.97
							C57.87,23.51,57.8,23.58,57.65,23.65z"/>
						<path class="st2" d="M38.71,27.03c-0.07,0.9-0.43,1.45-0.86,1.66C37.42,28.83,37,28.35,37,27.65c0.07-0.9,0.36-1.66,0.86-2.14
							c0,0,0.07,0,0.14,0c0.07,0.28-0.14,0.48-0.14,0.69c-0.14,0.28-0.21,0.55-0.29,0.83c-0.07,0.21-0.07,0.48,0.14,0.62
							c0.21,0.14,0.36,0.14,0.5-0.07c0.14-0.14,0.29-0.35,0.43-0.48C38.57,27.1,38.64,27.1,38.71,27.03z"/>
						<path class="st2" d="M57.37,25.24c0.14,0.28,0.21,0.48,0.36,0.83c0.14-0.41,0.21-0.69,0.36-1.17
							c0.14,0.35,0.21,0.69,0.36,0.97c0.36-0.28,0.21-0.9,0.57-1.17c0.14,0.55,0.21,1.1,0.07,1.66c-0.14,0.35-0.36,0.41-0.57,0.21
							c-0.21-0.21-0.36-0.21-0.64,0c-0.21,0.28-0.36,0.14-0.5-0.28C57.15,26,57.15,25.72,57.37,25.24z"/>
						<path class="st2" d="M36.28,38.98c0.07-0.62,0.29-1.17,0.14-1.8c-0.07,0-0.07-0.07-0.14-0.07c-0.5-0.07-0.64-0.35-0.43-0.97
							c0.07-0.21,0.14-0.41,0.36-0.41c0.14,0,0.43,0.21,0.5,0.41c0.21,0.69,0.07,2.14-0.36,2.69
							C36.42,38.91,36.42,38.91,36.28,38.98z"/>
						<path class="st2" d="M29.78,19.58c0.07,0.21,0.07,0.48,0.14,0.69c0.07,0.14,0.14,0.28,0.21,0.28s0.14-0.14,0.21-0.28
							s0.07-0.21,0.14-0.35c0.21,0.41,0.21,0.9,0,1.1c-0.21,0.28-0.36,0.21-0.64-0.14c-0.21,0.14-0.43,0.21-0.64,0.28
							c-0.14,0-0.21-0.14-0.36-0.28c-0.29-0.41-0.21-1.04,0.07-1.52c0.14,0.14,0.14,0.48,0.14,0.69c0,0.14,0.14,0.28,0.14,0.41
							c0.14-0.14,0.21-0.14,0.29-0.28C29.56,19.99,29.63,19.78,29.78,19.58C29.7,19.51,29.78,19.58,29.78,19.58z"/>
						<path class="st2" d="M68.23,36.22c0-0.14-0.07-0.35,0-0.48c0.14-0.55-0.07-0.97-0.36-1.31c-0.07-0.07-0.14-0.14-0.21-0.21
							c-0.21-0.28-0.21-0.35-0.07-0.69c0.14-0.35,0.36-0.35,0.57-0.21c0.64,0.55,0.79,2,0.36,2.76c-0.07,0.14-0.14,0.14-0.14,0.21
							C68.3,36.29,68.3,36.22,68.23,36.22z"/>
						<path class="st2" d="M45.57,23.79c0-0.21-0.07-0.35,0-0.55c0.07-0.97-0.07-1.86-0.43-2.62c-0.07-0.07-0.07-0.14-0.14-0.21
							c-0.07-0.28,0.07-0.62,0.21-0.69c0.14-0.14,0.29,0.07,0.36,0.21c0.07,0.14,0.14,0.35,0.14,0.55c0.14,0.9,0.14,1.8,0.14,2.69
							c0,0.21-0.14,0.35-0.14,0.62C45.64,23.86,45.57,23.86,45.57,23.79z"/>
						<path class="st2" d="M23.99,21.99c0.14-0.69,0.29-1.31,0.14-2c-0.14,0.07-0.29,0.14-0.36,0.14c-0.07,0-0.21,0-0.21-0.07
							c-0.07-0.14-0.07-0.35,0-0.35c0.14-0.21,0.29-0.48,0.43-0.62c0.21-0.21,0.36-0.14,0.5,0.21c0.07,0.21,0.14,0.48,0.14,0.69
							C24.49,20.68,24.27,21.37,23.99,21.99z"/>
					</g>
				</g>
			</g>
		</g>
	</g>
	<path class="st3" d="M80.6,85.66H18.48c-9.86,0-17.94-7.87-17.94-17.54V19.09c0-9.67,8.08-17.54,17.94-17.54H80.6
		c9.86,0,17.94,7.87,17.94,17.54v49.03C98.54,77.85,90.53,85.66,80.6,85.66z"/>
</g>
</svg>
