<?xml version="1.0" encoding="utf-8"?>
<!-- Generator: Adobe Illustrator 26.5.0, SVG Export Plug-In . SVG Version: 6.00 Build 0)  -->
<svg version="1.1" id="Layer_1" xmlns="http://www.w3.org/2000/svg" xmlns:xlink="http://www.w3.org/1999/xlink" x="0px" y="0px"
	 viewBox="0 0 100 100" style="enable-background:new 0 0 100 100;" xml:space="preserve">
<style type="text/css">
	.st0{fill:#FFFFFF;}
	.st1{clip-path:url(#SVGID_00000074443012526072988370000008723161227639518348_);}
	.st2{fill:#FF4553;}
	.st3{fill:#216CB7;}
	.st4{fill:#252538;}
	.st5{fill:none;stroke:#F0F1F1;stroke-width:0.6455;stroke-miterlimit:10;}
</style>
<g>
	<path class="st0" d="M41.81,27.7c0-0.13,0.09-0.23,0.21-0.23c0.12,0,0.24,0.1,0.24,0.23c0,0.13-0.12,0.22-0.24,0.22
		C41.9,27.92,41.81,27.82,41.81,27.7L41.81,27.7z"/>
</g>
<g>
	<path class="st0" d="M41.29,27.25c0-0.13,0.1-0.25,0.22-0.25c0.11,0,0.22,0.11,0.22,0.25c0,0.12-0.11,0.22-0.22,0.22
		C41.39,27.48,41.29,27.38,41.29,27.25L41.29,27.25z"/>
</g>
<g>
	<path class="st0" d="M40.7,26.87c0-0.12,0.08-0.22,0.21-0.22c0.11,0,0.2,0.1,0.2,0.22c0,0.13-0.1,0.23-0.2,0.23
		C40.78,27.11,40.7,27.01,40.7,26.87L40.7,26.87z"/>
</g>
<g>
	<path class="st0" d="M40.06,26.62c0-0.13,0.09-0.23,0.21-0.23c0.11,0,0.21,0.11,0.21,0.23c0,0.13-0.11,0.23-0.21,0.23
		C40.15,26.85,40.06,26.76,40.06,26.62L40.06,26.62z"/>
</g>
<g>
	<path class="st0" d="M39.34,26.48c0-0.13,0.1-0.23,0.23-0.23c0.11,0,0.2,0.1,0.2,0.23c0,0.12-0.08,0.23-0.2,0.23
		C39.44,26.71,39.34,26.6,39.34,26.48L39.34,26.48z"/>
</g>
<g>
	<path class="st0" d="M38.67,26.44c0-0.13,0.1-0.23,0.22-0.23c0.11,0,0.21,0.1,0.21,0.23c0,0.12-0.11,0.22-0.21,0.22
		C38.77,26.66,38.67,26.56,38.67,26.44L38.67,26.44z"/>
</g>
<g>
	<path class="st0" d="M38,26.47c0-0.13,0.1-0.23,0.22-0.23c0.13,0,0.22,0.11,0.22,0.23c0,0.12-0.09,0.23-0.22,0.23
		C38.11,26.7,38,26.58,38,26.47L38,26.47z"/>
</g>
<g>
	<path class="st0" d="M37.36,26.47c0-0.13,0.08-0.23,0.2-0.23c0.13,0,0.23,0.11,0.23,0.23c0,0.12-0.1,0.23-0.23,0.23
		C37.44,26.7,37.36,26.58,37.36,26.47L37.36,26.47z"/>
</g>
<g>
	<path class="st0" d="M37.68,27.11c0-0.13,0.1-0.24,0.21-0.24c0.12,0,0.23,0.11,0.23,0.24c0,0.12-0.11,0.24-0.23,0.24
		C37.78,27.34,37.68,27.23,37.68,27.11L37.68,27.11z"/>
</g>
<g>
	<path class="st0" d="M37.81,27.81c0-0.12,0.1-0.23,0.22-0.23c0.13,0,0.22,0.11,0.22,0.23c0,0.13-0.09,0.24-0.22,0.24
		C37.91,28.05,37.81,27.94,37.81,27.81L37.81,27.81z"/>
</g>
<g>
	<path class="st0" d="M36.85,26.02c0-0.13,0.1-0.24,0.21-0.24c0.12,0,0.23,0.11,0.23,0.24c0,0.12-0.11,0.22-0.23,0.22
		C36.94,26.24,36.85,26.14,36.85,26.02L36.85,26.02z"/>
</g>
<g>
	<g>
		<g>
			<g>
				<defs>
					<path id="SVGID_1_" d="M77.65,84.49H19.5c-9.94,0-17.89-8.03-17.89-17.81V20.18c0-9.85,8.02-17.81,17.89-17.81h58.14
						c9.94,0,17.89,8.03,17.89,17.81v46.49C95.54,76.52,87.52,84.49,77.65,84.49z"/>
				</defs>
				<clipPath id="SVGID_00000093168675581255806720000009011621653525068940_">
					<use xlink:href="#SVGID_1_"  style="overflow:visible;"/>
				</clipPath>
				<g style="clip-path:url(#SVGID_00000093168675581255806720000009011621653525068940_);">
					<g>
						<rect x="-0.04" y="-1.21" class="st2" width="97.15" height="29.69"/>
					</g>
					<g>
						<rect x="-0.04" y="28.54" class="st3" width="97.15" height="29.69"/>
					</g>
					<g>
						<rect x="-0.04" y="58.3" class="st0" width="97.15" height="29.69"/>
					</g>
					<g>
						<g>
							<g>
								<path class="st4" d="M8.33,31.78v30.7c0,7.49,4.18,13.5,9.32,13.5s9.32-6.07,9.32-13.5v-30.7
									C26.98,31.78,8.33,31.78,8.33,31.78z"/>
							</g>
							<g>
								<path class="st0" d="M17.65,71.39c-3.43,0-6.17-4.05-6.17-8.97V36.3h12.34v26.11C23.82,67.41,21.01,71.39,17.65,71.39z"/>
							</g>
							<g>
								<rect x="15.53" y="34.21" class="st4" width="3.84" height="38.8"/>
							</g>
							<g>
								<rect x="9.84" y="50.14" class="st4" width="15.43" height="5.53"/>
							</g>
						</g>
						<g>
							<rect x="10.59" y="26.45" class="st4" width="13.51" height="3.91"/>
						</g>
						<g>
							<path class="st4" d="M24.1,24.9H10.59l-1.3-2.83c-2.19-4.79,0.21-11.2,4.18-11.2h7.68c3.98,0,6.38,6.41,4.18,11.2L24.1,24.9z
								"/>
						</g>
					</g>
				</g>
			</g>
		</g>
	</g>
	<path class="st5" d="M78.33,83.68H18.75c-9.46,0-17.21-7.69-17.21-17.14V18.62c0-9.45,7.75-17.14,17.21-17.14h59.58
		c9.46,0,17.21,7.69,17.21,17.14v47.91C95.54,75.98,87.86,83.68,78.33,83.68z"/>
</g>
</svg>
