<?xml version="1.0" encoding="utf-8"?>
<!-- Generator: Adobe Illustrator 26.5.0, SVG Export Plug-In . SVG Version: 6.00 Build 0)  -->
<svg version="1.1" id="Layer_1" xmlns="http://www.w3.org/2000/svg" xmlns:xlink="http://www.w3.org/1999/xlink" x="0px" y="0px"
	 viewBox="0 0 100 100" style="enable-background:new 0 0 100 100;" xml:space="preserve">
<style type="text/css">
	.st0{fill:#FFFFFF;}
	.st1{clip-path:url(#SVGID_00000150813458492863010570000002620829110058387867_);}
	.st2{fill:#FF4553;}
	.st3{fill:none;stroke:#F0F1F1;stroke-width:0.6455;stroke-miterlimit:10;}
</style>
<g>
	<path class="st0" d="M41.81,27.7c0-0.13,0.09-0.23,0.21-0.23c0.12,0,0.24,0.1,0.24,0.23c0,0.13-0.12,0.22-0.24,0.22
		C41.9,27.92,41.81,27.82,41.81,27.7L41.81,27.7z"/>
</g>
<g>
	<path class="st0" d="M41.29,27.25c0-0.13,0.1-0.25,0.22-0.25c0.11,0,0.22,0.11,0.22,0.25c0,0.12-0.11,0.22-0.22,0.22
		C41.39,27.48,41.29,27.38,41.29,27.25L41.29,27.25z"/>
</g>
<g>
	<path class="st0" d="M40.7,26.87c0-0.12,0.08-0.22,0.21-0.22c0.11,0,0.2,0.1,0.2,0.22c0,0.13-0.1,0.23-0.2,0.23
		C40.78,27.11,40.7,27.01,40.7,26.87L40.7,26.87z"/>
</g>
<g>
	<path class="st0" d="M40.06,26.62c0-0.13,0.09-0.23,0.21-0.23c0.11,0,0.21,0.11,0.21,0.23c0,0.13-0.11,0.23-0.21,0.23
		C40.15,26.85,40.06,26.76,40.06,26.62L40.06,26.62z"/>
</g>
<g>
	<path class="st0" d="M39.34,26.48c0-0.13,0.1-0.23,0.23-0.23c0.11,0,0.2,0.1,0.2,0.23c0,0.12-0.08,0.23-0.2,0.23
		C39.44,26.71,39.34,26.6,39.34,26.48L39.34,26.48z"/>
</g>
<g>
	<path class="st0" d="M38.67,26.44c0-0.13,0.1-0.23,0.22-0.23c0.11,0,0.21,0.1,0.21,0.23c0,0.12-0.11,0.22-0.21,0.22
		C38.77,26.66,38.67,26.56,38.67,26.44L38.67,26.44z"/>
</g>
<g>
	<path class="st0" d="M38,26.47c0-0.13,0.1-0.23,0.22-0.23c0.13,0,0.22,0.11,0.22,0.23c0,0.12-0.09,0.23-0.22,0.23
		C38.11,26.7,38,26.58,38,26.47L38,26.47z"/>
</g>
<g>
	<path class="st0" d="M37.36,26.47c0-0.13,0.08-0.23,0.2-0.23c0.13,0,0.23,0.11,0.23,0.23c0,0.12-0.1,0.23-0.23,0.23
		C37.44,26.7,37.36,26.58,37.36,26.47L37.36,26.47z"/>
</g>
<g>
	<path class="st0" d="M37.68,27.11c0-0.13,0.1-0.24,0.21-0.24c0.12,0,0.23,0.11,0.23,0.24c0,0.12-0.11,0.24-0.23,0.24
		C37.78,27.34,37.68,27.23,37.68,27.11L37.68,27.11z"/>
</g>
<g>
	<path class="st0" d="M37.81,27.81c0-0.12,0.1-0.23,0.22-0.23c0.13,0,0.22,0.11,0.22,0.23c0,0.13-0.09,0.24-0.22,0.24
		C37.91,28.05,37.81,27.94,37.81,27.81L37.81,27.81z"/>
</g>
<g>
	<path class="st0" d="M36.85,26.02c0-0.13,0.1-0.24,0.21-0.24c0.12,0,0.23,0.11,0.23,0.24c0,0.12-0.11,0.22-0.23,0.22
		C36.94,26.24,36.85,26.14,36.85,26.02L36.85,26.02z"/>
</g>
<g>
	<g>
		<g>
			<g>
				<defs>
					<path id="SVGID_1_" d="M77.27,80.83H19.74c-9.84,0-17.7-7.71-17.7-17.1V19.11c0-9.45,7.94-17.1,17.7-17.1h57.52
						c9.84,0,17.7,7.71,17.7,17.1v44.62C94.97,73.12,87.1,80.83,77.27,80.83z"/>
				</defs>
				<clipPath id="SVGID_00000161592302189124026310000005220820568289065129_">
					<use xlink:href="#SVGID_1_"  style="overflow:visible;"/>
				</clipPath>
				<g style="clip-path:url(#SVGID_00000161592302189124026310000005220820568289065129_);">
					<g>
						<rect x="0.48" y="-1.22" class="st2" width="96.12" height="85.22"/>
					</g>
					<polygon class="st0" points="71.91,30.71 55.63,30.71 55.63,7.78 40.43,7.78 40.43,30.71 24.15,30.71 24.15,52.07 40.43,52.07 
						40.43,75 55.63,75 55.63,52.07 71.91,52.07 					"/>
				</g>
			</g>
		</g>
	</g>
	<path class="st3" d="M78.01,80.7H19.07c-9.36,0-17.03-7.38-17.03-16.45V18.27c0-9.07,7.67-16.45,17.03-16.45h58.95
		c9.36,0,17.03,7.38,17.03,16.45v45.98C94.97,73.31,87.44,80.7,78.01,80.7z"/>
</g>
</svg>
