<?xml version="1.0" encoding="utf-8"?>
<!-- Generator: Adobe Illustrator 26.5.0, SVG Export Plug-In . SVG Version: 6.00 Build 0)  -->
<svg version="1.1" id="Layer_1" xmlns="http://www.w3.org/2000/svg" xmlns:xlink="http://www.w3.org/1999/xlink" x="0px" y="0px"
	 viewBox="0 0 100 100" style="enable-background:new 0 0 100 100;" xml:space="preserve">
<style type="text/css">
	.st0{clip-path:url(#SVGID_00000106833935010208982740000010467946240996658852_);}
	.st1{fill:#FF4553;}
	.st2{fill:#FFFFFF;}
	.st3{fill:none;stroke:#F0F1F1;stroke-width:0.6419;stroke-miterlimit:10;}
</style>
<g>
	<g>
		<g>
			<g>
				<defs>
					<path id="SVGID_1_" d="M78.87,85.96H19.14c-10.2,0-18.35-8.28-18.35-18.39V19.49C0.79,9.31,9.08,1.1,19.14,1.1h59.73
						c10.2,0,18.35,8.28,18.35,18.39v48.08C97.3,77.75,89.08,85.96,78.87,85.96z"/>
				</defs>
				<clipPath id="SVGID_00000103224790736648137410000010394590200314225817_">
					<use xlink:href="#SVGID_1_"  style="overflow:visible;"/>
				</clipPath>
				<g style="clip-path:url(#SVGID_00000103224790736648137410000010394590200314225817_);">
					<g>
						<rect x="-0.7" y="-2.83" class="st1" width="100.47" height="92.44"/>
					</g>
					<g>
						<path class="st2" d="M65.13,42.93c0,12.91-7.16,23.3-15.94,23.3s-15.94-10.39-15.94-23.3s7.16-23.3,15.94-23.3
							C57.97,19.63,65.13,30.09,65.13,42.93z"/>
						<g>
							<path class="st1" d="M45.86,50.02c-2.34-4.21-2.2-10.39,0.35-14.32c1.35-1.97,3.05-3.16,4.96-3.23
								c2.41-0.14,4.39,1.19,6.02,3.79c-1.7-4.7-5.81-7.93-10.06-6.46c-4.46,1.47-7.44,7.51-7.09,14.11
								c0.35,6.53,3.83,11.65,8.08,12.35c1.63,0.28,3.12,0,4.53-0.91s3.47-3.23,3.61-4.07C53.08,55.64,48.26,54.37,45.86,50.02z"/>
							<path class="st1" d="M57.62,41.11c0.07-0.14,0.14-0.14,0.21-0.35c-0.14,0.07-0.21,0.07-0.35,0.14
								c-0.92,0.35-1.84,0.63-2.69,0.98c-0.14,0.07-0.21,0-0.35-0.21c-0.5-1.12-0.99-2.39-1.49-3.51c-0.07-0.14-0.14-0.14-0.14-0.28
								h-0.07c0,0.14,0,0.21,0,0.35c-0.07,1.4-0.14,2.67-0.21,4.07c0,0.28-0.07,0.35-0.28,0.42c-0.21,0.07-0.5,0.14-0.71,0.21
								c-0.71,0.28-1.49,0.56-2.2,0.77v0.07c0.07,0.07,0.14,0.14,0.21,0.14c0.85,0.49,1.7,1.05,2.62,1.54
								c0.21,0.14,0.21,0.28,0.21,0.56c-0.07,1.4-0.14,2.67-0.21,4.07c0,0.14,0,0.21,0,0.42c0.14-0.14,0.14-0.21,0.21-0.35
								c0.64-1.05,1.2-2.11,1.84-3.16c0.14-0.14,0.21-0.21,0.35-0.14c0.78,0.42,1.56,0.91,2.27,1.4c0.14,0.14,0.35,0.21,0.57,0.35
								c0-0.14-0.07-0.28-0.14-0.35c-0.5-1.12-0.99-2.39-1.49-3.51c-0.07-0.14-0.07-0.28,0-0.42
								C56.34,43.21,57.05,42.16,57.62,41.11z"/>
						</g>
					</g>
				</g>
			</g>
		</g>
	</g>
	<path class="st3" d="M80.15,85.89H18.93c-9.78,0-17.64-7.93-17.64-17.69V18.65c0-9.76,7.94-17.69,17.64-17.69h61.22
		c9.78,0,17.64,7.93,17.64,17.69V68.2C97.79,77.96,89.93,85.89,80.15,85.89z"/>
</g>
</svg>
