<?xml version="1.0" encoding="utf-8"?>
<!-- Generator: Adobe Illustrator 26.5.0, SVG Export Plug-In . SVG Version: 6.00 Build 0)  -->
<svg version="1.1" id="Layer_1" xmlns="http://www.w3.org/2000/svg" xmlns:xlink="http://www.w3.org/1999/xlink" x="0px" y="0px"
	 viewBox="0 0 100 100" style="enable-background:new 0 0 100 100;" xml:space="preserve">
<style type="text/css">
	.st0{clip-path:url(#SVGID_00000042725007382756385340000006372234571266853562_);}
	.st1{fill:#FF4553;}
	.st2{fill:#FFFFFF;}
	.st3{fill:#216CB7;}
	.st4{fill:none;stroke:#F0F1F1;stroke-width:0.6455;stroke-miterlimit:10;}
</style>
<g>
	<g>
		<g>
			<g>
				<defs>
					<path id="SVGID_1_" d="M79.9,83.98H20.17c-10.21,0-18.38-8.02-18.38-17.79V19.76c0-9.84,8.24-17.79,18.38-17.79H79.9
						c10.21,0,18.38,8.02,18.38,17.79v46.43C98.28,76.03,90.04,83.98,79.9,83.98z"/>
				</defs>
				<clipPath id="SVGID_00000052066732240623030840000002166630540986735793_">
					<use xlink:href="#SVGID_1_"  style="overflow:visible;"/>
				</clipPath>
				<g style="clip-path:url(#SVGID_00000052066732240623030840000002166630540986735793_);">
					<g>
						<rect x="0.17" y="-1.54" class="st1" width="99.79" height="88.75"/>
					</g>
					<g>
						<g>
							<rect x="0.1" y="8.98" class="st2" width="99.72" height="7.08"/>
							<rect x="0.1" y="23.2" class="st2" width="99.72" height="7.08"/>
							<rect x="0.1" y="37.42" class="st2" width="99.72" height="7.08"/>
							<rect x="0.1" y="51.63" class="st2" width="99.72" height="7.08"/>
							<rect x="0.1" y="65.92" class="st2" width="99.72" height="7.08"/>
							<rect x="0.1" y="80.14" class="st2" width="99.72" height="7.08"/>
						</g>
						<rect x="0.1" y="-1.13" class="st3" width="42.4" height="52.83"/>
						<g>
							<polygon class="st2" points="4.54,1.83 3.77,4.13 1.93,4.53 3.27,6.28 2.92,8.71 4.54,7.56 6.09,8.71 5.81,6.28 7.08,4.53 
								5.32,4.13 							"/>
							<polygon class="st2" points="11.37,1.83 10.6,4.13 8.77,4.53 10.1,6.28 9.75,8.71 11.37,7.56 12.92,8.71 12.64,6.28 
								13.91,4.53 12.15,4.13 							"/>
							<polygon class="st2" points="18.2,1.83 17.36,4.13 15.6,4.53 16.86,6.28 16.58,8.71 18.2,7.56 19.75,8.71 19.47,6.28 
								20.74,4.53 18.98,4.13 							"/>
							<polygon class="st2" points="25.03,1.83 24.19,4.13 22.43,4.53 23.7,6.28 23.41,8.71 25.03,7.56 26.58,8.71 26.3,6.28 
								27.57,4.53 25.81,4.13 							"/>
							<polygon class="st2" points="31.8,1.83 31.02,4.13 29.26,4.53 30.53,6.28 30.25,8.71 31.8,7.56 33.49,8.71 33.13,6.28 
								34.47,4.53 32.64,4.13 							"/>
							<polygon class="st2" points="37.08,8.71 38.63,7.56 40.25,8.71 39.96,6.28 41.23,4.53 39.47,4.13 38.63,1.83 37.92,4.13 
								36.09,4.53 37.43,6.28 							"/>
							<polygon class="st2" points="4.54,11.54 3.77,13.83 1.93,14.17 3.27,15.92 2.92,18.41 4.54,17.27 6.09,18.41 5.81,15.92 
								7.08,14.17 5.32,13.83 							"/>
							<polygon class="st2" points="11.37,11.54 10.6,13.83 8.77,14.17 10.1,15.92 9.75,18.41 11.37,17.27 12.92,18.41 12.64,15.92 
								13.91,14.17 12.15,13.83 							"/>
							<polygon class="st2" points="18.2,11.54 17.36,13.83 15.6,14.17 16.86,15.92 16.58,18.41 18.2,17.27 19.75,18.41 
								19.47,15.92 20.74,14.17 18.98,13.83 							"/>
							<polygon class="st2" points="25.03,11.54 24.19,13.83 22.43,14.17 23.7,15.92 23.41,18.41 25.03,17.27 26.58,18.41 
								26.3,15.92 27.57,14.17 25.81,13.83 							"/>
							<polygon class="st2" points="31.8,11.54 31.02,13.83 29.26,14.17 30.53,15.92 30.25,18.41 31.8,17.27 33.49,18.41 
								33.13,15.92 34.47,14.17 32.64,13.83 							"/>
							<polygon class="st2" points="38.63,11.54 37.92,13.83 36.09,14.17 37.43,15.92 37.08,18.41 38.63,17.27 40.25,18.41 
								39.96,15.92 41.23,14.17 39.47,13.83 							"/>
							<polygon class="st2" points="4.54,21.17 3.77,23.47 1.93,23.8 3.27,25.55 2.92,28.12 4.54,26.9 6.09,28.12 5.81,25.55 
								7.08,23.8 5.32,23.47 							"/>
							<polygon class="st2" points="11.37,21.17 10.6,23.47 8.77,23.8 10.1,25.55 9.75,28.12 11.37,26.9 12.92,28.12 12.64,25.55 
								13.91,23.8 12.15,23.47 							"/>
							<polygon class="st2" points="18.2,21.17 17.36,23.47 15.6,23.8 16.86,25.55 16.58,28.12 18.2,26.9 19.75,28.12 19.47,25.55 
								20.74,23.8 18.98,23.47 							"/>
							<polygon class="st2" points="25.03,21.17 24.19,23.47 22.43,23.8 23.7,25.55 23.41,28.12 25.03,26.9 26.58,28.12 26.3,25.55 
								27.57,23.8 25.81,23.47 							"/>
							<polygon class="st2" points="31.8,21.17 31.02,23.47 29.26,23.8 30.53,25.55 30.25,28.12 31.8,26.9 33.49,28.12 33.13,25.55 
								34.47,23.8 32.64,23.47 							"/>
							<polygon class="st2" points="38.63,21.17 37.92,23.47 36.09,23.8 37.43,25.55 37.08,28.12 38.63,26.9 40.25,28.12 
								39.96,25.55 41.23,23.8 39.47,23.47 							"/>
							<polygon class="st2" points="4.54,30.88 3.77,33.1 1.93,33.51 3.27,35.26 2.92,37.75 4.54,36.61 6.09,37.75 5.81,35.26 
								7.08,33.51 5.32,33.1 							"/>
							<polygon class="st2" points="11.37,30.88 10.6,33.1 8.77,33.51 10.1,35.26 9.75,37.75 11.37,36.61 12.92,37.75 12.64,35.26 
								13.91,33.51 12.15,33.1 							"/>
							<polygon class="st2" points="18.2,30.88 17.36,33.1 15.6,33.51 16.86,35.26 16.58,37.75 18.2,36.61 19.75,37.75 19.47,35.26 
								20.74,33.51 18.98,33.1 							"/>
							<polygon class="st2" points="25.03,30.88 24.19,33.1 22.43,33.51 23.7,35.26 23.41,37.75 25.03,36.61 26.58,37.75 
								26.3,35.26 27.57,33.51 25.81,33.1 							"/>
							<polygon class="st2" points="31.8,30.88 31.02,33.1 29.26,33.51 30.53,35.26 30.25,37.75 31.8,36.61 33.49,37.75 
								33.13,35.26 34.47,33.51 32.64,33.1 							"/>
							<polygon class="st2" points="38.63,30.88 37.92,33.1 36.09,33.51 37.43,35.26 37.08,37.75 38.63,36.61 40.25,37.75 
								39.96,35.26 41.23,33.51 39.47,33.1 							"/>
							<polygon class="st2" points="5.32,42.74 4.54,40.52 3.77,42.74 1.93,43.14 3.27,44.96 2.92,47.46 4.54,46.24 6.09,47.46 
								5.81,44.96 7.08,43.14 							"/>
							<polygon class="st2" points="12.15,42.74 11.37,40.52 10.6,42.74 8.77,43.14 10.1,44.96 9.75,47.46 11.37,46.24 12.92,47.46 
								12.64,44.96 13.91,43.14 							"/>
							<polygon class="st2" points="18.98,42.74 18.2,40.52 17.36,42.74 15.6,43.14 16.86,44.96 16.58,47.46 18.2,46.24 
								19.75,47.46 19.47,44.96 20.74,43.14 							"/>
							<polygon class="st2" points="25.81,42.74 25.03,40.52 24.19,42.74 22.43,43.14 23.7,44.96 23.41,47.46 25.03,46.24 
								26.58,47.46 26.3,44.96 27.57,43.14 							"/>
							<polygon class="st2" points="32.64,42.74 31.8,40.52 31.02,42.74 29.26,43.14 30.53,44.96 30.25,47.46 31.8,46.24 
								33.49,47.46 33.13,44.96 34.47,43.14 							"/>
							<polygon class="st2" points="39.47,42.74 38.63,40.52 37.92,42.74 36.09,43.14 37.43,44.96 37.08,47.46 38.63,46.24 
								40.25,47.46 39.96,44.96 41.23,43.14 							"/>
						</g>
					</g>
				</g>
			</g>
		</g>
	</g>
	<path class="st4" d="M80.6,83.91H19.4c-9.72,0-17.68-7.68-17.68-17.12V18.95c0-9.43,7.96-17.12,17.68-17.12h61.2
		c9.72,0,17.68,7.68,17.68,17.12V66.8C98.28,76.23,90.39,83.91,80.6,83.91z"/>
</g>
</svg>
