<?xml version="1.0" encoding="utf-8"?>
<!-- Generator: Adobe Illustrator 26.5.0, SVG Export Plug-In . SVG Version: 6.00 Build 0)  -->
<svg version="1.1" id="Layer_1" xmlns="http://www.w3.org/2000/svg" xmlns:xlink="http://www.w3.org/1999/xlink" x="0px" y="0px"
	 viewBox="0 0 100 100" style="enable-background:new 0 0 100 100;" xml:space="preserve">
<style type="text/css">
	.st0{clip-path:url(#SVGID_00000120534329823245467680000012105222235347935884_);}
	.st1{fill:#FFFFFF;}
	.st2{fill:#6B9922;}
	.st3{fill:#FF4553;}
	.st4{fill:none;stroke:#F0F1F1;stroke-width:0.6455;stroke-miterlimit:10;}
</style>
<g>
	<g>
		<g>
			<g>
				<defs>
					<path id="SVGID_1_" d="M79.87,84.12H20.2c-10.2,0-18.37-8.01-18.37-17.78V19.95c0-9.83,8.23-17.78,18.37-17.78h59.68
						c10.2,0,18.37,8.01,18.37,17.78v46.39C98.24,76.11,90.01,84.12,79.87,84.12z"/>
				</defs>
				<clipPath id="SVGID_00000141424413720887664370000005266166082209925552_">
					<use xlink:href="#SVGID_1_"  style="overflow:visible;"/>
				</clipPath>
				<g style="clip-path:url(#SVGID_00000141424413720887664370000005266166082209925552_);">
					<g>
						<rect x="0.14" y="-1.39" class="st1" width="99.72" height="44.44"/>
					</g>
					<g>
						<rect x="0.14" y="43.11" class="st2" width="99.72" height="44.44"/>
					</g>
					<path class="st3" d="M32.72,66.21c-0.14,0.13-0.14,0.13-0.28,0.07c-0.35-0.34-0.56-0.74-0.63-1.35c0-0.34,0.14-0.74,0.35-0.88
						c0.21-0.2,0.28-0.47,0.35-0.81c-0.21-0.2-0.49-0.4-0.63-0.81c-0.07-0.13-0.28-0.13-0.42-0.07c-0.14,0.13-0.14,0.27-0.14,0.47
						c0,0.13,0.07,0.13,0.14,0.34c-0.14-0.13-0.21-0.27-0.28-0.4c-0.21-0.74-0.07-1.82,0.63-2.02c0.07,0,0.14-0.07,0.21-0.13
						c0.14-0.27,0.35-0.4,0.63-0.47c-0.07-0.34-0.14-0.61-0.14-0.88C32.44,59,32.23,58.94,32.09,59c-0.07,0.07-0.14,0.13-0.14,0.13
						c-0.14-0.67,0.28-1.55,0.7-1.62c0.14,0,0.21,0,0.28,0.07c0.14,0.13,0.35,0.13,0.49,0.13c0.49,0.07,0.77,0.4,0.91,1.08
						s0.42,1.14,0.84,1.62c0.14,0.2,0.35,0.34,0.49,0.47c0.35,0.2,0.56,0.13,0.77-0.27c1.13-1.82,1.76-3.97,2.11-6.26
						c0.07-0.54,0.14-1.08,0.14-1.62c0-0.2,0-0.4-0.14-0.61c-0.07-0.07-0.14-0.2-0.14-0.34c-0.49,0.13-0.84-0.34-1.2-0.74
						c-0.14,0.13-0.35,0.2-0.49,0.34c-0.63,0.47-1.13,0.88-1.83,1.14c-0.14,0.07-0.14,0.13-0.14,0.2c-0.42,1.62-2.32,2.09-3.17,0.94
						c-0.14-0.2-0.35-0.34-0.42-0.67c0.14,0.07,0.14,0.07,0.14,0.13c0.42,0.47,1.13,0.34,1.55-0.4c0.07-0.13,0.14-0.27,0.14-0.34
						c0.07-0.13,0.07-0.34,0-0.47c-0.99-3.1-1.62-6.26-2.11-9.56c0-0.07,0-0.07-0.07-0.13c-0.07,0.13-0.14,0.13-0.14,0.2
						c-0.14,0.34-0.35,0.67-0.63,0.81c-0.07,0-0.14,0.13-0.14,0.13c-0.35,0.61-0.99,0.54-1.34-0.07c-0.21-0.34-0.35-0.67-0.21-1.14
						c0,0.07,0.07,0.13,0.07,0.2c0.07,0.2,0.14,0.34,0.21,0.34c0.14,0,0.28-0.2,0.28-0.4c0-0.07,0-0.13,0-0.2
						c-0.07-0.74,0.14-1.35,0.49-1.89c0.28-0.34,0.35-0.88,0.35-1.35c0-0.13-0.07-0.2-0.07-0.27c-0.14-0.27-0.21-0.47-0.28-0.74
						c-0.14-0.4-0.28-0.88-0.35-1.35c0,0-0.07,0-0.07-0.07c-0.35-0.27-0.63-0.27-0.99,0c-0.42,0.34-0.84,0.27-1.27-0.27
						c-0.14-0.13-0.21-0.13-0.35-0.13s-0.14,0.2-0.14,0.34c0,0.07,0,0.13,0.07,0.27c-0.07-0.07-0.14-0.07-0.14-0.13
						c-0.21-0.34-0.35-0.74-0.28-1.14c0.07-0.4,0.28-0.74,0.56-0.88c0.07-0.07,0.14-0.07,0.21-0.13c0.35-0.34,0.63-0.47,1.06-0.2
						c0.35,0.2,0.7,0.4,1.13,0.34c0.07,0,0.14,0.07,0.21,0.07c0-0.2-0.07-0.4-0.14-0.54c-0.14-0.34-0.35-0.47-0.63-0.54
						c-0.42-0.13-0.7-0.54-0.84-1.08c-0.07-0.2-0.14-0.34-0.28-0.34c-0.28-0.13-0.35,0-0.42,0.4c0,0.07,0,0.13-0.07,0.2
						c-0.07-0.13-0.14-0.13-0.14-0.2c-0.07-0.34-0.14-0.61-0.07-0.88c0-0.34,0.14-0.61,0.35-0.67c0.21-0.13,0.49-0.13,0.7-0.2
						c0.21,0,0.42,0.07,0.63,0.07c0.49,0.13,0.84,0.4,0.99,1.14c0-0.13,0-0.34,0-0.47c0-0.2,0-0.4,0.07-0.67
						c0.07-0.34,0-0.54-0.21-0.67c-0.14-0.13-0.28-0.13-0.42-0.13c0.07-0.2,0.14-0.34,0.28-0.4c0.56-0.4,1.2-0.2,1.62,0.47
						c0.14,0.13,0.14,0.34,0.35,0.4c0.21,0.13,0.28,0.4,0.28,0.74c0,0.27-0.07,0.54-0.14,0.81c-0.07,0.34-0.07,0.67,0,1.08
						c0.14,1.01,0.42,1.95,0.84,2.76c0.35,0.61,0.49,1.14,0.63,1.89c0.28,1.89,0.84,3.64,1.48,5.39c0.07,0.13,0.14,0.2,0.14,0.34
						c0.14-0.13,0.14-0.13,0.28-0.61c-0.21-0.2-0.28-0.54-0.28-0.88c0-0.54,0.07-1.08,0.28-1.48c-0.35-1.01-0.14-1.95,0.35-2.76
						c-0.14-0.88,0.14-1.68,0.7-2.36c-0.14-0.34,0-0.74,0.14-1.08c0.14-0.47,0.42-0.88,0.77-1.21c0-0.74,0.14-1.14,0.84-1.75
						c0-0.67,0.35-1.01,0.63-1.35c-0.14-0.4-0.07-0.88,0.07-1.21c0.07-0.2,0.07-0.34,0-0.54c-0.14-0.34-0.35-0.61-0.63-0.81
						c-0.14-0.07-0.21-0.07-0.35,0.13c-0.42,0.54-0.84,0.94-1.41,1.14c-0.14,0.07-0.14,0.07-0.28,0.07
						c0.07-0.34,0.35-0.34,0.35-0.74c-0.49,0.34-0.99,0.54-1.62,0.61c0.14-0.27,0.28-0.4,0.42-0.74c-0.77,0.07-1.48,0.07-2.18,0.07
						c0-0.07,0-0.07,0-0.13c0.07-0.07,0.07-0.13,0.14-0.13c0.14-0.13,0.35-0.13,0.42-0.34c0.56-0.61,0.84-1.48,0.84-2.56
						c-0.07,0-0.14,0-0.21,0c-0.42,0.13-0.91,0.2-1.34,0.13c-0.63-0.07-1.13-0.34-1.62-0.88c-0.07-0.07-0.14-0.13-0.14-0.2
						c-0.07,0.61,0.07,1.21,0.14,1.82c-1.06-0.67-2.39-5.05-2.18-6.87c0.14,0.34,0.35,0.61,0.56,0.88c0.14,0.27,0.35,0.54,0.56,0.74
						c0.21,0.27,0.35,0.47,0.63,0.74c0.21,0.2,0.35,0.4,0.63,0.61c0.21,0.2,0.42,0.4,0.63,0.61c0.21,0.13,0.42,0.34,0.7,0.54
						c-0.35,0.27-0.63,0.34-1.06,0.34c0.35,0.4,1.55,0.61,2.11,0.34c0-0.88,0.07-1.68,0.28-2.49c-0.21-0.2-0.42-0.34-0.63-0.61
						c-0.35-0.2-0.63-0.34-0.91,0c-0.07,0.07-0.07,0.07-0.14,0.07c0,0-0.07,0-0.14,0c0.07-0.07,0.07-0.13,0.14-0.2
						c0.42-0.61,0.99-0.88,1.62-1.08c1.13-0.34,2.11-0.07,3.1,0.4c0.14,0.07,0.28,0.13,0.49,0.2c-0.07-0.07-0.07-0.13-0.07-0.13
						c-0.28-0.47-0.14-0.94,0.14-1.14c0.35-0.27,0.63-0.4,1.06-0.47c0.7-0.13,1.34-0.07,2.04,0.13c0.21,0.07,0.35,0.07,0.63-0.13
						c0.35-0.2,0.63-0.27,1.06-0.4s0.77-0.34,1.13-0.54c0.35-0.2,0.63-0.47,0.99-0.88c0.14,0.34,0,0.67-0.07,1.01
						s-0.14,0.61-0.28,0.94c0.63-0.13,1.34-0.34,1.83-1.08c0,0.13,0.07,0.2,0.07,0.34c0,0.74-0.14,1.41-0.42,2.09
						c-0.14,0.4-0.42,0.81-0.63,1.21c-0.07,0.13-0.14,0.34-0.28,0.47c0.63,0.34,0.99,0.88,1.2,1.62c0.14,0.61,0.21,1.35,0.21,2.02
						c0,0-0.07,0-0.07,0.07c-0.07-0.13-0.07-0.2-0.14-0.34c-0.14-0.54-0.56-0.67-0.84-0.4c-0.14,0.13-0.14,0.2-0.07,0.4
						c0.14,0.13,0.21,0.34,0.35,0.47c0.21,0.27,0.42,0.61,0.63,0.88c0.49,0.88,0.63,1.75,0.35,2.76c-0.07,0.27-0.14,0.54-0.28,0.81
						c0,0.07-0.07,0.13-0.14,0.2c0-0.13,0-0.27,0-0.34c0-0.34-0.07-0.74-0.28-1.08c-0.14-0.13-0.21-0.34-0.35-0.27
						c-0.28,0.07-0.35,0.34-0.35,0.67c0.07,0.2,0.14,0.4,0.21,0.61c0.14,0.27,0.28,0.47,0.42,0.67c0.14,0.13,0.21,0.34,0.35,0.61
						c0.28,0.61,0.35,1.21,0.14,1.89c-0.14,0.54-0.35,0.94-0.77,1.41c0-0.13,0-0.27,0-0.34c0-0.27,0-0.61-0.07-0.88
						c-0.14-0.54-0.56-0.67-0.91-0.4c0.07,0.34,0.14,0.61,0.35,0.88c0.14,0.13,0.28,0.34,0.42,0.47c0.42,0.47,0.56,1.08,0.42,1.82
						c-0.07,0.13-0.07,0.34-0.07,0.54c0.07-0.13,0.14-0.2,0.14-0.34c0.35-0.88,0.63-1.89,0.7-2.9c0.07-1.08,0.14-2.09,0.14-3.16
						c0.07-1.08,0.14-2.22,0.42-3.23c0.42-1.62,1.2-2.83,2.25-3.77c0.91-0.81,1.9-1.28,2.89-1.62c1.41-0.47,2.81-0.61,4.29-0.74
						c0.99-0.07,1.97-0.13,2.89-0.27c1.62-0.2,3.1-0.94,4.29-2.42c0.35-0.34,0.7-0.74,1.06-1.08c0.14-0.13,0.28-0.27,0.42-0.34
						c0.35-0.27,0.7-0.27,1.13,0c0.14,0.13,0.28,0.13,0.42,0.2c0.28,0.13,0.49,0.34,0.77,0.47c0.07,0.07,0.14,0.2,0.14,0.34
						c0.07,0.47-0.28,0.94-0.63,1.08c0-0.13,0.07-0.27,0.07-0.4c-0.14-0.13-0.28,0.07-0.35,0.13c-0.14,0.07-0.28,0.13-0.42,0.13
						c-0.14,0.07-0.21,0.13-0.35,0.13c-0.28,0.34-0.49,0.61-0.7,1.01c-0.77,1.35-1.34,2.83-1.41,4.58
						c-0.14,1.68,0.14,3.16,0.99,4.44c0.07,0.07,0.14,0.13,0.14,0.2c0.21,0.27,0.28,0.61,0.14,1.08c-0.14,0.4-0.35,0.54-0.63,0.34
						c0.07-0.2,0.21-0.34,0.07-0.61c-0.35-0.07-0.63-0.13-0.84-0.13c-0.14,0-0.28,0-0.42,0.07c-0.28,0.13-0.56,0.13-0.84,0.34
						c-1.06,0.61-1.55,1.82-1.48,3.3c0,0.27,0.07,0.54,0.14,0.88c0.07,0.34,0.14,0.67,0.42,0.88c0.35,0.34,0.35,0.67,0.21,1.14
						c-0.07,0.2-0.14,0.47-0.21,0.67c-0.14,0.34-0.35,0.34-0.63,0c0.07-0.07,0.14-0.13,0.21-0.2c0.07-0.13,0-0.2,0-0.34
						c-0.99-0.74-1.97-1.01-3.1-0.61c-0.77,0.34-1.48,0.88-1.83,1.62c0.07,0,0.14-0.07,0.14-0.07c0.35-0.2,0.84-0.34,1.27-0.34
						c1.97-0.07,3.87,0.47,5.7,1.55c0.56,0.34,1.13,0.61,1.62,0.94c0.99,0.54,1.97,0.4,2.89-0.13c0.84-0.47,1.34-1.35,1.41-2.63
						c0-0.13,0-0.34,0-0.47c0,0.07-0.07,0.13-0.07,0.13c-0.42,1.21-1.13,1.75-2.04,1.95c-1.41,0.34-2.46-1.14-2.81-2.83
						c-0.35-1.89,0.28-3.84,1.55-4.58c0.91-0.61,1.9-0.61,2.81-0.13c0.07,0.07,0.14,0.07,0.14,0.13c0.07,0.07,0.14,0.07,0.14,0.13
						c0.42-0.61,0.7-1.41,0.99-2.22c-0.84,0.47-1.62,0.74-2.53,0.81c0.07-0.13,0.07-0.13,0.07-0.2c0.84-1.08,1.69-2.15,2.6-3.23
						c1.13-1.41,2.46-2.56,3.8-3.57c0.28-0.2,0.63-0.4,0.84-0.61c0.07,0,0.07,0,0.14-0.07c-0.14,0.34-0.28,0.54-0.35,0.81
						c-0.14,0.27-0.28,0.54-0.35,0.81c-0.14,0.27-0.28,0.54-0.35,0.81c-0.14,0.27-0.21,0.61-0.35,0.88
						c-0.14,0.27-0.21,0.61-0.28,0.88c-0.14,0.34-0.14,0.61-0.28,0.88c-0.14,0.27-0.14,0.61-0.21,0.88
						c-0.07,0.27-0.14,0.61-0.21,0.88c-0.07,0.34-0.14,0.61-0.14,0.94c-0.07,0.34-0.14,0.61-0.14,0.94
						c-0.07,0.34-0.07,0.61-0.14,0.94c-0.07,0.34-0.07,0.61-0.14,0.94c-0.35-0.27-0.42-0.47-1.06-2.42
						c-0.21,0.4-0.35,0.94-0.35,1.41c0,0.13,0,0.13-0.07,0.27c-0.07,0.34,0,0.67,0.14,1.01c0.99,1.68,1.34,3.64,0.99,5.79
						c-0.42,3.1-1.76,5.32-3.66,6.73c-0.35,0.27-0.63,0.4-0.99,0.61c-0.07,0.07-0.14,0.13-0.21,0.13c0.35,1.41,0.91,2.56,1.83,3.5
						c0.42,0.47,0.99,0.81,1.55,0.88c0.84,0.13,1.62,1.41,1.48,2.69c-0.14,0.94-0.42,1.75-0.91,2.36l-0.07,0.07c0,0,0,0-0.07-0.07
						c0.07-0.13,0.14-0.2,0.14-0.34c0.14-0.34,0.14-0.67,0-1.08c-0.14-0.34-0.35-0.47-0.63-0.34c-0.14,0.07-0.14,0.13-0.28,0.2
						c0,0.54,0.07,1.08,0.07,1.55c0.14,1.35,0.14,2.69,0.28,4.04c0.07,0.4,0.14,0.88,0.21,1.35c0.21,0.74,0.56,0.88,1.06,0.74
						c0.14-0.07,0.35-0.13,0.49-0.2c0.49-0.13,1.13,0.2,1.34,0.81c0.07,0.13,0.14,0.27,0.21,0.34c0.63,0.61,0.7,1.35,0.14,2.09
						c-0.14,0.2-0.21,0.27-0.42,0.34c0-0.13,0.07-0.34,0.07-0.47c0-0.13,0-0.34-0.14-0.4c-0.14-0.13-0.21,0-0.35,0.13
						c-0.28,0.34-0.56,0.34-0.84,0.2c-0.14-0.13-0.28-0.13-0.35-0.27c-0.35-0.2-0.63-0.27-1.06-0.07c-0.21,0.13-0.42,0.27-0.63,0.4
						c-0.56,0.34-1.13,0.54-1.76,0.54c-0.35,0-0.63-0.13-0.99-0.4c-0.07-0.07-0.14-0.13-0.28-0.13c-0.21,0-0.49,0.07-0.7,0.13
						c-0.28,0.07-0.49,0.2-0.7,0.34c-0.21,0.13-0.35,0.34-0.63,0.47c-0.42,0.27-0.84,0.07-1.13-0.47c-0.35,0.07-0.35,0.2-0.28,0.88
						c-0.28,0-0.63-0.54-0.77-1.01c-0.14-0.88,0.28-1.14,0.63-1.55c-0.14-0.2-0.35-0.34-0.49-0.61c-0.14-0.13-0.28-0.13-0.35,0
						c-0.07,0.13-0.14,0.27-0.14,0.4c-0.07,0.13-0.07,0.2-0.07,0.34c-0.07-0.13-0.14-0.13-0.14-0.2c-0.14-0.34-0.21-0.67-0.21-1.08
						c0-0.61,0.14-1.01,0.56-1.08c0.21-0.07,0.35-0.2,0.63-0.4c0.14-0.13,0.35-0.2,0.49-0.34c0.07-0.34-0.07-0.54-0.28-0.54
						c-0.14,0-0.35,0.13-0.42,0.27c-0.07,0.07-0.14,0.13-0.14,0.2c-0.14-0.13-0.14-0.27-0.14-0.34c0.14-0.88,0.63-1.68,1.41-1.48
						c0.07,0,0.14,0,0.21,0c0.35-0.13,0.7,0.07,0.99,0.4c0.14,0.13,0.14,0.34,0.28,0.61c0.28,0.67,0.63,1.14,1.2,1.55
						c0.07,0,0.07,0.07,0.14,0.07c0.21,0.13,0.28,0.07,0.35-0.27c0.14-0.74,0.28-1.41,0.28-2.22c-0.07-1.48-0.35-2.9-0.7-4.24
						c-0.14-0.34-0.28-0.61-0.35-0.88c-0.63,0.34-1.13,0.27-1.62-0.27c-0.56,0.13-1.13,0.13-1.55-0.61
						c-0.63,0.13-1.2,0.27-1.62-0.61c-0.7,0-1.2-0.54-1.69-1.21c-0.21,0.13-0.42-0.13-0.63-0.34c-0.28-0.2-0.42-0.13-0.42,0.34
						c0,0.2,0,0.4,0.07,0.61c0.14,0.4,0.35,0.81,0.63,0.94s0.63,0.47,0.84,0.81c0.63,0.81,0.77,2.56-0.21,3.37
						c-0.35,0.27-0.63,0.4-0.99,0.61c-0.07,0-0.07,0.07-0.14,0c-0.07,0-0.14-0.07-0.14-0.13c0-0.07,0-0.13,0.07-0.13
						c0.07-0.07,0.14-0.07,0.14-0.13c0.14-0.13,0.14-0.2,0.28-0.34c0.14-0.13,0.14-0.34,0.07-0.61c-0.07-0.2-0.21-0.34-0.35-0.34
						c-0.35-0.07-0.63,0.13-0.84,0.4c-0.99,1.21-1.97,2.49-2.81,4.04c-0.14,0.34-0.35,0.61-0.42,1.01c-0.07,0.13-0.07,0.34-0.07,0.4
						c0.07,0.13,0.21,0.07,0.35,0c0.14-0.07,0.35-0.2,0.49-0.27c0.42-0.13,0.84-0.13,1.2,0.27c0.07,0.07,0.14,0.13,0.21,0.13
						c0.14,0.07,0.21,0.13,0.35,0.2c0.35,0.34,0.35,0.74,0.28,1.21c-0.14,0.34-0.28,0.61-0.49,0.88c-0.14,0.13-0.14,0.13-0.35,0.13
						c0.07-0.13,0.14-0.2,0.14-0.34c0-0.07,0-0.13-0.07-0.2c-0.07-0.07-0.14,0-0.14,0c-0.07,0-0.07,0.07-0.14,0.13
						c-0.14,0.13-0.28,0.27-0.49,0.27c-0.28,0-0.63-0.07-0.84-0.13c-0.21-0.07-0.42-0.13-0.63-0.2c-0.56-0.27-1.13-0.13-1.69,0.13
						c-0.21,0.13-0.42,0.27-0.63,0.4c-0.35,0.2-0.77,0.34-1.13,0.34c-0.14,0-0.35-0.07-0.56-0.13c-0.35-0.13-0.84-0.13-1.2,0.13
						c-0.28,0.2-0.56,0.47-0.84,0.67c-0.14,0.13-0.28,0.2-0.35,0.27c-0.21,0.13-0.49,0.13-0.7-0.13c-0.14-0.13-0.35-0.2-0.42-0.07
						c-0.14,0.13-0.14,0.34-0.14,0.54c0,0.07,0,0.13,0.07,0.27c-0.14-0.07-0.14-0.07-0.21-0.13c-0.28-0.34-0.42-0.67-0.49-1.21
						c-0.07-0.61,0.21-0.94,0.63-1.14c0.14-0.13,0.28-0.2,0.35-0.4c-0.07-0.07-0.14-0.13-0.14-0.13c-0.14-0.13-0.28-0.34-0.35-0.67
						c0-0.27-0.14-0.34-0.21-0.34c-0.14,0-0.28,0.2-0.28,0.4c0,0.13,0,0.2,0,0.34c-0.14-0.07-0.21-0.13-0.28-0.34
						c-0.28-0.88,0.14-1.75,0.77-1.75c0.28,0,0.42-0.27,0.7-0.34c0.07,0,0.07-0.13,0.07-0.2c0-0.13,0-0.27-0.07-0.34
						c-0.07-0.13-0.14-0.2-0.21-0.27c-0.14-0.07-0.14,0.13-0.21,0.27c0,0.13-0.07,0.27-0.07,0.4c-0.07-0.13-0.14-0.13-0.14-0.2
						c0-0.27-0.07-0.61-0.07-0.88c0.07-0.34,0.21-0.61,0.42-0.67c0.21-0.07,0.42-0.07,0.63-0.07c0.14,0,0.21,0,0.35-0.13
						c0.14-0.13,0.28-0.13,0.42,0c0.28,0.13,0.49,0.34,0.63,0.74c0.42,0.94,1.13,1.35,1.83,1.62c0.14,0.07,0.21,0,0.28-0.07
						c0.35-0.34,0.63-0.61,0.99-1.08c0.77-1.08,1.34-2.36,1.76-3.7c0.14-0.34,0.21-0.81,0.35-1.21c-0.42-0.13-0.84-0.34-1.13-0.88
						c-0.77-0.07-1.27-0.54-1.48-1.62c-0.49-0.2-0.84-0.61-1.06-1.28c-0.14,0-0.21,0-0.35-0.07c-0.35,1.08-0.99,1.21-1.62,1.35
						c-0.14,0.67-0.63,0.88-1.06,0.88c-0.21,0.07-0.42,0-0.63,0c-0.14,0.27-0.35,0.54-0.56,0.88c0,0.07,0,0.13,0.07,0.13
						c0.35,0.94,0.14,1.82-0.28,2.56c-0.35,0.61-0.84,1.01-1.34,1.21h-0.07c0,0,0,0-0.07-0.07c0.07-0.07,0.07-0.13,0.14-0.2
						c0.14-0.27,0.21-0.47,0.35-0.74c0.14-0.34,0-0.54-0.14-0.67c-0.35-0.27-0.63-0.27-0.99-0.2c-0.07,0-0.14,0.07-0.14,0.13
						c-0.99,1.55-2.04,3.1-2.81,4.92c-0.14,0.34-0.28,0.67-0.35,1.08c-0.14,0.27-0.14,0.61-0.07,0.88c0.07,0.27,0.14,0.34,0.35,0.34
						c0.21-0.07,0.49-0.13,0.7-0.13c0.14,0,0.14-0.07,0.21-0.13c0.35-0.13,0.63-0.07,0.99,0.2c0.14,0.13,0.35,0.27,0.49,0.4
						c0.07,0.07,0.14,0.07,0.14,0.13c0.42,0.4,0.56,1.08,0.21,1.68c-0.14,0.34-0.35,0.61-0.63,0.81c-0.14-0.13,0-0.2,0-0.34
						c0.07-0.13,0.14-0.34-0.07-0.47c-0.14-0.13-0.28-0.07-0.35,0.07c-0.14,0.2-0.35,0.27-0.63,0.13c-0.14-0.07-0.21-0.13-0.35-0.13
						c-0.7-0.4-1.41-0.4-2.18-0.13c-0.42,0.2-0.84,0.4-1.34,0.54c-0.49,0.13-0.99,0.27-1.48,0.13c-0.14-0.07-0.28-0.13-0.35-0.34
						c-0.14-0.27-0.35-0.34-0.56-0.2c-0.14,0.07-0.14,0.13-0.21,0.2c-0.14,0.13-0.28,0.34-0.35,0.54c-0.35,0.47-0.77,0.54-1.2,0.34
						c-0.14-0.07-0.21-0.2-0.35-0.07c-0.14,0.13-0.07,0.34,0,0.54C32.65,66.07,32.65,66.14,32.72,66.21z M66.92,33.15
						c-0.21-0.13-0.35-0.2-0.56-0.34c-0.21-0.13-0.35-0.07-0.63,0.07c-0.28,0.13-0.42,0.61-0.35,1.08c0.07,0.34,0.21,0.61,0.49,0.67
						s0.42-0.13,0.63-0.34C66.78,33.96,66.85,33.62,66.92,33.15z M34.2,24.4c0.56,0.54,1.48,0.67,1.83,0.27
						C35.4,24.26,34.83,24.26,34.2,24.4z M43.77,36.72c0.14-0.13,0.14-0.27,0.21-0.34c0.07-0.13,0.07-0.4-0.07-0.61
						c-0.14-0.13-0.21-0.2-0.35-0.13c-0.14,0.13-0.28,0.27-0.35,0.47C43.42,36.38,43.56,36.58,43.77,36.72z"/>
				</g>
			</g>
		</g>
	</g>
	<path class="st4" d="M80.58,84.12H19.42c-9.71,0-17.66-7.68-17.66-17.1V19.21c0-9.43,7.95-17.1,17.66-17.1h61.16
		c9.71,0,17.66,7.68,17.66,17.1v47.81C98.24,76.44,90.36,84.12,80.58,84.12z"/>
</g>
</svg>
