<?xml version="1.0" encoding="utf-8"?>
<!-- Generator: Adobe Illustrator 26.5.0, SVG Export Plug-In . SVG Version: 6.00 Build 0)  -->
<svg version="1.1" id="Layer_1" xmlns="http://www.w3.org/2000/svg" xmlns:xlink="http://www.w3.org/1999/xlink" x="0px" y="0px"
	 viewBox="0 0 60 50" style="enable-background:new 0 0 60 50;" xml:space="preserve">
<style type="text/css">
	.st0{fill:#3E5C9A;}
	.st1{fill:#FFFFFF;}
</style>
<g id="XMLID_1631_">
	<path id="XMLID_1633_" class="st0" d="M45.5,48.54H15.02c-4.68,0-8.47-3.79-8.47-8.47V9.59c0-4.68,3.79-8.47,8.47-8.47H45.5
		c4.68,0,8.47,3.79,8.47,8.47v30.49C53.97,44.75,50.18,48.54,45.5,48.54z"/>
	<path id="XMLID_1632_" class="st1" d="M26.65,39.16h5.77V24.71h4.03l0.43-4.84h-4.46c0,0,0-1.81,0-2.76c0-1.14,0.23-1.59,1.33-1.59
		c0.89,0,3.12,0,3.12,0V10.5c0,0-3.29,0-4,0c-4.3,0-6.23,1.89-6.23,5.51c0,3.15,0,3.86,0,3.86h-3v4.9h3V39.16z"/>
</g>
</svg>
