<?xml version="1.0" encoding="utf-8"?>
<!-- Generator: Adobe Illustrator 26.5.0, SVG Export Plug-In . SVG Version: 6.00 Build 0)  -->
<svg version="1.1" id="Layer_1" xmlns="http://www.w3.org/2000/svg" xmlns:xlink="http://www.w3.org/1999/xlink" x="0px" y="0px"
	 viewBox="0 0 60 50" style="enable-background:new 0 0 60 50;" xml:space="preserve">
<style type="text/css">
	.st0{fill:url(#XMLID_00000094591017507122416290000013417328488252706700_);}
	.st1{fill:#FFFFFF;}
</style>
<g id="XMLID_1621_">
	
		<radialGradient id="XMLID_00000140703046493456139760000012670762664231687077_" cx="5.3598" cy="48.7009" r="87.6878" gradientUnits="userSpaceOnUse">
		<stop  offset="0" style="stop-color:#F5EC53"/>
		<stop  offset="0.2412" style="stop-color:#E48244"/>
		<stop  offset="0.3974" style="stop-color:#D15767"/>
		<stop  offset="0.4888" style="stop-color:#C84278"/>
		<stop  offset="1" style="stop-color:#192CFA"/>
	</radialGradient>
	<path id="XMLID_1630_" style="fill:url(#XMLID_00000140703046493456139760000012670762664231687077_);" d="M45.5,48.54H15.02
		c-4.68,0-8.47-3.79-8.47-8.47V9.59c0-4.68,3.79-8.47,8.47-8.47H45.5c4.68,0,8.47,3.79,8.47,8.47v30.49
		C53.97,44.75,50.18,48.54,45.5,48.54z"/>
	<g id="XMLID_1622_">
		<path id="XMLID_1627_" class="st1" d="M30.26,14.17c3.47,0,3.88,0.01,5.25,0.08c1.27,0.06,1.96,0.27,2.41,0.45
			c0.61,0.24,1.04,0.52,1.49,0.97c0.46,0.46,0.74,0.89,0.97,1.49c0.18,0.46,0.39,1.15,0.45,2.41c0.06,1.37,0.08,1.78,0.08,5.25
			c0,3.47-0.01,3.88-0.08,5.25c-0.06,1.27-0.27,1.96-0.45,2.41c-0.24,0.61-0.52,1.04-0.97,1.5c-0.45,0.45-0.89,0.74-1.49,0.97
			c-0.46,0.18-1.15,0.39-2.41,0.45c-1.37,0.06-1.78,0.08-5.25,0.08s-3.88-0.01-5.25-0.08c-1.27-0.06-1.96-0.27-2.41-0.45
			c-0.61-0.24-1.04-0.52-1.5-0.97c-0.45-0.46-0.74-0.89-0.97-1.5c-0.18-0.46-0.39-1.15-0.45-2.41c-0.06-1.37-0.08-1.78-0.08-5.25
			c0-3.47,0.01-3.88,0.08-5.25c0.06-1.27,0.27-1.96,0.45-2.41c0.24-0.61,0.52-1.04,0.97-1.49c0.46-0.46,0.89-0.74,1.5-0.97
			c0.46-0.18,1.15-0.39,2.41-0.45C26.38,14.18,26.79,14.17,30.26,14.17 M30.26,11.83c-3.53,0-3.97,0.02-5.36,0.08
			c-1.38,0.06-2.33,0.28-3.16,0.6c-0.86,0.33-1.58,0.78-2.3,1.5c-0.72,0.72-1.17,1.45-1.5,2.3c-0.32,0.83-0.54,1.77-0.6,3.16
			c-0.06,1.39-0.08,1.83-0.08,5.36c0,3.53,0.01,3.97,0.08,5.36c0.06,1.38,0.28,2.33,0.6,3.16c0.33,0.85,0.78,1.58,1.5,2.3
			c0.72,0.72,1.45,1.17,2.3,1.5c0.83,0.32,1.77,0.54,3.16,0.6c1.39,0.06,1.83,0.08,5.36,0.08c3.53,0,3.97-0.01,5.36-0.08
			c1.38-0.06,2.33-0.28,3.16-0.6c0.86-0.33,1.58-0.78,2.3-1.5c0.72-0.72,1.17-1.45,1.5-2.3c0.32-0.83,0.54-1.77,0.6-3.16
			c0.06-1.39,0.08-1.83,0.08-5.36c0-3.53-0.01-3.97-0.08-5.36c-0.06-1.38-0.28-2.33-0.6-3.16c-0.33-0.85-0.78-1.58-1.5-2.3
			c-0.72-0.72-1.45-1.17-2.3-1.5c-0.83-0.32-1.77-0.54-3.16-0.6C34.23,11.84,33.79,11.83,30.26,11.83"/>
		<path id="XMLID_1624_" class="st1" d="M30.26,18.15c-3.69,0-6.68,2.99-6.68,6.68s2.99,6.68,6.68,6.68c3.69,0,6.68-2.99,6.68-6.68
			S33.95,18.15,30.26,18.15 M30.26,29.16c-2.39,0-4.33-1.94-4.33-4.33c0-2.39,1.94-4.33,4.33-4.33s4.33,1.94,4.33,4.33
			C34.59,27.22,32.65,29.16,30.26,29.16"/>
		<path id="XMLID_1623_" class="st1" d="M38.76,17.89c0,0.86-0.7,1.56-1.56,1.56c-0.86,0-1.56-0.7-1.56-1.56
			c0-0.86,0.7-1.56,1.56-1.56C38.06,16.33,38.76,17.03,38.76,17.89"/>
	</g>
</g>
</svg>
