<?xml version="1.0" encoding="utf-8"?>
<!-- Generator: Adobe Illustrator 26.5.0, SVG Export Plug-In . SVG Version: 6.00 Build 0)  -->
<svg version="1.1" id="Layer_1" xmlns="http://www.w3.org/2000/svg" xmlns:xlink="http://www.w3.org/1999/xlink" x="0px" y="0px"
	 viewBox="0 0 60 50" style="enable-background:new 0 0 60 50;" xml:space="preserve">
<style type="text/css">
	.st0{fill:#C3271A;}
	.st1{fill:#FFFFFF;}
</style>
<g id="XMLID_1518_">
	<path id="XMLID_1523_" class="st0" d="M45.5,48.54H15.02c-4.68,0-8.47-3.79-8.47-8.47V9.59c0-4.68,3.79-8.47,8.47-8.47H45.5
		c4.68,0,8.47,3.79,8.47,8.47v30.49C53.97,44.75,50.18,48.54,45.5,48.54z"/>
	<g id="XMLID_1519_">
		<path id="XMLID_1521_" class="st1" d="M48.45,15.63c-0.44-1.64-1.72-2.94-3.36-3.38c-2.96-0.8-14.83-0.8-14.83-0.8
			s-11.87,0-14.83,0.8c-1.63,0.44-2.92,1.73-3.36,3.38c-0.79,2.98-0.79,9.2-0.79,9.2s0,6.22,0.79,9.2c0.44,1.64,1.72,2.94,3.36,3.38
			c2.96,0.8,14.83,0.8,14.83,0.8s11.87,0,14.83-0.8c1.63-0.44,2.92-1.73,3.36-3.38c0.79-2.98,0.79-9.2,0.79-9.2
			S49.24,18.61,48.45,15.63z"/>
		<polygon id="XMLID_1520_" class="st0" points="26.38,30.47 26.38,19.19 36.3,24.83 		"/>
	</g>
</g>
</svg>
