<?xml version="1.0" encoding="utf-8"?>
<!-- Generator: Adobe Illustrator 26.5.0, SVG Export Plug-In . SVG Version: 6.00 Build 0)  -->
<svg version="1.1" id="Layer_1" xmlns="http://www.w3.org/2000/svg" xmlns:xlink="http://www.w3.org/1999/xlink" x="0px" y="0px"
	 viewBox="0 0 1366 768" style="enable-background:new 0 0 1366 768;" xml:space="preserve">
<style type="text/css">
	.st0{fill:#E0E0E0;}
</style>
<g>
	<g>
		<path class="st0" d="M961.97,330.37c1.9-4.77,3.94-9.35,7.81-13.06c8.41-8.08,23.46-9.06,32.52-1.76
			c2.17,1.75,4.28,3.59,6.25,5.56c43.43,43.39,86.83,86.8,130.23,130.22c1.07,1.07,2,2.28,4.51,4.19c0.69-1.24,1.14-2.72,2.1-3.68
			c44.2-44.28,88.46-88.5,132.67-132.76c7.44-7.44,16.23-10.12,26.37-7.58c9.88,2.48,17.86,12.02,18.26,22.68
			c0.32,8.79-2.89,15.59-8.98,21.66c-51.02,50.9-101.96,101.89-152.92,152.85c-10.42,10.42-26.57,10.38-37.04-0.1
			c-49.3-49.3-98.58-98.63-147.94-147.87c-5.67-5.66-11.27-11.23-13.85-19.07C961.97,337.89,961.97,334.13,961.97,330.37z"/>
	</g>
</g>
</svg>
